<?xml version="1.0" encoding="UTF-8"?>
<svg id="Layer_1" xmlns="http://www.w3.org/2000/svg" version="1.1" viewBox="0 0 512 512">
  <!-- Generator: Adobe Illustrator 29.7.0, SVG Export Plug-In . SVG Version: 2.1.1 Build 138)  -->
  <defs>
    <style>
      .st0 {
        fill: #498ecc;
      }

      .st1 {
        fill: #f6851f;
      }
    </style>
  </defs>
  <g>
    <polygon class="st0" points="94.23 354.7 89.43 345.75 74.57 353.72 68.57 342.52 61.61 346.24 67.61 357.45 59.86 361.59 51.84 346.63 44.67 350.47 57.48 374.39 94.23 354.7"/>
    <path class="st0" d="M80.55,330.3l-3.14-10.15-7.77-.21-4.59-14.86,6.3-4.56-3.17-10.27-35.37,26.72,3.47,11.23,44.28,2.1ZM58.33,309.89l3.03,9.81-16.09-.37,13.05-9.44Z"/>
    <rect class="st0" x="26.48" y="279.94" width="41.68" height="10.15" transform="translate(-41.21 10) rotate(-8.42)"/>
    <polygon class="st0" points="24.29 274.54 52.12 259.97 65.89 259.9 65.84 249.75 52.07 249.82 24.08 235.53 24.14 246.93 41.64 254.86 24.23 263.03 24.29 274.54"/>
    <path class="st0" d="M27.81,212.66l37.74,23.25,2.16-10.41-6.7-3.94,3.16-15.23,7.72-.94,2.19-10.52-43.88,6.29-2.39,11.51ZM55.97,207.29l-2.09,10.06-13.9-8.1,15.99-1.95Z"/>
    <polygon class="st0" points="48.51 149.72 36.93 176.8 44.58 180.07 51.58 163.69 68.16 190.15 75.26 193.18 86.84 166.1 79.19 162.83 72.15 179.32 55.6 152.75 48.51 149.72"/>
    <path class="st0" d="M69.76,116.04l23.53,37.57,6.55-8.37-4.26-6.5,9.59-12.25,7.34,2.57,6.62-8.46-42.12-13.81-7.25,9.26ZM97.39,123.71l-6.33,8.09-8.87-13.43,15.2,5.34Z"/>
    <polygon class="st0" points="102.43 80.4 94.59 86.86 121.12 119.01 128.95 112.55 118.03 99.32 130.21 89.27 141.13 102.5 148.97 96.04 122.44 63.89 114.61 70.35 125 82.94 112.82 92.99 102.43 80.4"/>
    <polygon class="st0" points="134.93 55.13 152.83 92.77 162 88.41 151.24 65.78 170.47 84.38 177.87 80.87 175.56 54.29 186.29 76.86 195.46 72.5 177.56 34.86 166.78 39.98 168.72 71.02 145.76 49.98 134.93 55.13"/>
    <path class="st0" d="M224.43,59.27l3.89,6.73,10.54-2.1-22.95-37.92-11.53,2.3-6.63,43.83,10.42-2.08,1-7.71,15.26-3.05ZM212.29,38.14l8.05,13.95-10.07,2.01,2.02-15.96Z"/>
    <path class="st0" d="M268.56,61.87c3.34-1.68,5.93-4.09,7.79-7.22,1.86-3.13,2.82-6.74,2.9-10.82.07-4.12-.76-7.76-2.5-10.94-1.74-3.18-4.24-5.67-7.5-7.47-3.25-1.8-7.08-2.74-11.47-2.82l-15.61-.28-.75,41.68,15.61.28c4.35.08,8.2-.72,11.53-2.4ZM251.73,55.39l.44-24.22,4.81.09c3.84.07,6.81,1.19,8.91,3.37,2.1,2.18,3.11,5.18,3.04,9.02-.07,3.84-1.19,6.79-3.37,8.85-2.18,2.06-5.18,3.05-9.02,2.98l-4.81-.09Z"/>
    <polygon class="st0" points="294.43 67.83 304.21 70.56 308.74 54.32 320.98 57.73 323.1 50.12 310.86 46.71 313.22 38.24 329.58 42.8 331.76 34.96 305.62 27.68 294.43 67.83"/>
    <path class="st0" d="M369.06,54.47c-2.09-3.1-4.88-5.54-8.37-7.32-3.49-1.78-7.11-2.59-10.84-2.45-3.74.14-7.2,1.23-10.38,3.25-3.18,2.02-5.7,4.85-7.55,8.49-1.85,3.63-2.66,7.34-2.42,11.12.23,3.78,1.39,7.22,3.48,10.33,2.09,3.1,4.88,5.54,8.37,7.32,3.49,1.78,7.1,2.59,10.82,2.44,3.72-.15,7.16-1.25,10.34-3.3,3.17-2.05,5.68-4.89,7.53-8.53,1.85-3.63,2.67-7.32,2.46-11.07-.21-3.75-1.35-7.17-3.44-10.27ZM360.83,71.13c-1.65,3.25-3.87,5.4-6.66,6.47-2.79,1.07-5.66.85-8.63-.66-3-1.52-4.89-3.72-5.68-6.58-.79-2.86-.35-5.94,1.32-9.22,1.69-3.32,3.91-5.49,6.68-6.53,2.77-1.03,5.65-.79,8.65.73,2.96,1.51,4.84,3.69,5.63,6.56.79,2.86.35,5.94-1.32,9.22Z"/>
    <path class="st0" d="M397.51,71.06l-7.83-6.47-15.85,19.17c-2.37,2.87-3.8,5.78-4.3,8.74-.49,2.96-.15,5.76,1.03,8.4,1.18,2.64,3.03,5.01,5.57,7.11,2.53,2.09,5.24,3.49,8.14,4.18,2.89.7,5.77.56,8.63-.42,2.86-.97,5.47-2.89,7.85-5.76l15.85-19.17-7.83-6.47-15.89,19.22c-1.59,1.92-3.3,3-5.13,3.23-1.83.23-3.67-.41-5.5-1.92-1.83-1.51-2.79-3.18-2.88-5-.09-1.82.66-3.69,2.25-5.61l15.89-19.22Z"/>
    <polygon class="st0" points="426.48 96.81 393.67 122.51 399.93 130.5 420.17 114.65 410.4 143.87 416.66 151.87 449.48 126.17 443.22 118.17 422.88 134.1 432.75 104.8 426.48 96.81"/>
    <path class="st0" d="M457.01,138.49l-37.64,17.9,6.71,14.1c1.87,3.93,4.3,7.02,7.29,9.25,2.99,2.24,6.3,3.49,9.94,3.76,3.63.27,7.29-.48,10.97-2.23,3.72-1.77,6.61-4.14,8.68-7.12,2.07-2.98,3.18-6.32,3.35-10.04.16-3.72-.7-7.56-2.59-11.52l-6.71-14.1ZM456.56,165.2c-1.01,2.85-3.25,5.1-6.72,6.75-3.47,1.65-6.61,1.96-9.42.93-2.81-1.03-5.04-3.28-6.69-6.75l-2.07-4.34,21.88-10.4,2.07,4.34c1.65,3.47,1.97,6.63.95,9.47Z"/>
    <path class="st0" d="M445.25,231.9l37.26-24.01-2.63-11.46-44-5.39,2.37,10.36,7.73.79,3.47,15.16-6.62,4.08,2.4,10.48ZM470.25,204.61l-13.72,8.44-2.29-10.01,16.01,1.57Z"/>
    <polygon class="st0" points="486.5 231.16 478.37 231.4 478.7 242.44 445.17 243.46 445.48 253.61 479.01 252.59 479.35 263.63 487.48 263.39 486.5 231.16"/>
    <rect class="st0" x="460.1" y="254.74" width="10.15" height="41.68" transform="translate(143.9 710.46) rotate(-84.19)"/>
    <path class="st0" d="M479.73,314.44c1.02-3.78,1.07-7.49.17-11.12-.91-3.63-2.68-6.79-5.32-9.49-2.64-2.7-5.92-4.58-9.86-5.64-3.94-1.06-7.73-1.09-11.38-.08-3.65,1-6.78,2.85-9.39,5.53-2.61,2.68-4.42,5.91-5.44,9.7-1.02,3.78-1.07,7.48-.16,11.09.91,3.61,2.7,6.75,5.36,9.44,2.66,2.68,5.96,4.56,9.89,5.62,3.94,1.06,7.72,1.1,11.34.13,3.62-.97,6.74-2.8,9.35-5.48,2.61-2.68,4.42-5.91,5.44-9.7ZM470.84,312.05c-.86,3.21-2.62,5.5-5.26,6.85-2.64,1.36-5.74,1.56-9.29.6-3.52-.95-6.09-2.67-7.71-5.18-1.62-2.51-2-5.37-1.13-8.58.88-3.25,2.63-5.55,5.27-6.91,2.64-1.36,5.74-1.56,9.29-.6,3.59.97,6.18,2.7,7.76,5.2,1.58,2.5,1.94,5.37,1.06,8.62Z"/>
    <polygon class="st0" points="471.58 347.81 434.85 328.12 430.05 337.06 452.71 349.21 422.02 352.03 417.22 360.98 453.96 380.68 458.76 371.73 435.99 359.52 466.78 356.76 471.58 347.81"/>
  </g>
  <g>
    <path class="st0" d="M501.22,256s-1.25,2.03-2.49,4.06c-1.25,1.99-2.49,3.98-2.49,3.98,0,0,1.14,2.07,2.29,4.14,1.07,2.08,2.09,4.2,2.09,4.2,0,0,1.36-1.96,2.68-3.97,1.25-2.03,2.49-4.06,2.49-4.06,0,0-1.14-2.11-2.28-4.21-1.14-2.07-2.28-4.14-2.28-4.14Z"/>
    <path class="st0" d="M500.62,272.38s-1.35,1.94-2.69,3.89c-1.34,1.91-2.68,3.81-2.68,3.81,0,0,.27.53.61,1.33.35.8.82,1.87,1.28,2.94.93,2.17,1.86,4.34,1.86,4.34,0,0,1.44-1.89,2.89-3.79.72-.96,1.45-1.93,1.99-2.65.56-.73.88-1.22.88-1.22,0,0-1.03-2.18-2.06-4.36-1.03-2.14-2.07-4.28-2.07-4.28Z"/>
    <path class="st0" d="M500.84,293.1c-.92-2.21-1.85-4.42-1.85-4.42,0,0-1.44,1.86-2.88,3.71-.71.92-1.52,1.81-2.08,2.49-.57.67-.96,1.12-.96,1.12,0,0,.82,2.19,1.64,4.39.81,2.23,1.63,4.47,1.63,4.47,0,0,1.53-1.8,3.07-3.6,1.54-1.84,3.08-3.68,3.08-3.68,0,0-.2-.56-.51-1.4-.32-.84-.68-1.95-1.15-3.07Z"/>
    <path class="st0" d="M496.81,306.26c-.25-.84-.47-1.41-.47-1.41,0,0-.37.45-.99,1.1-.61.65-1.42,1.52-2.24,2.38-1.62,1.7-3.24,3.4-3.24,3.4,0,0,.71,2.25,1.41,4.51.35,1.13.61,2.26.85,3.11.22.85.37,1.42.37,1.42,0,0,.43-.42,1.07-1.04.63-.63,1.52-1.46,2.34-2.32,1.63-1.74,3.26-3.48,3.26-3.48l-1.39-4.58c-.35-1.13-.7-2.26-.97-3.11Z"/>
    <path class="st0" d="M492.51,320.79s-1.71,1.64-3.41,3.27c-1.69,1.6-3.39,3.2-3.39,3.2,0,0,.14.57.32,1.42.18.86.43,2,.67,3.14.48,2.31.96,4.63.96,4.63,0,0,1.79-1.57,3.58-3.14.9-.8,1.8-1.6,2.48-2.2.68-.6,1.12-1.02,1.12-1.02,0,0-.58-2.34-1.15-4.69-.59-2.31-1.17-4.61-1.17-4.61Z"/>
    <path class="st0" d="M487.65,336.44s-1.78,1.53-3.56,3.06c-1.86,1.46-3.72,2.92-3.72,2.92,0,0,.37,2.32.74,4.63.18,1.17.36,2.35.49,3.23.07.44.12.81.16,1.07.03.26.05.4.05.4,0,0,.12-.09.33-.24.2-.16.49-.38.84-.66.7-.55,1.63-1.28,2.56-2.01l3.75-2.99s-.36-2.35-.71-4.71c-.46-2.35-.93-4.7-.93-4.7Z"/>
    <path class="st0" d="M481.82,351.75s-1.94,1.38-3.87,2.76c-1.92,1.35-3.84,2.69-3.84,2.69,0,0,.06.58.16,1.46.08.87.25,2.07.31,3.23.14,2.34.28,4.69.28,4.69,0,0,2.01-1.3,4.02-2.6,1.03-.65,1.95-1.36,2.69-1.88.73-.52,1.21-.87,1.21-.87,0,0-.23-2.39-.46-4.78-.25-2.35-.49-4.7-.49-4.7Z"/>
    <path class="st0" d="M475.1,371.35c-.12-2.38-.24-4.76-.24-4.76,0,0-1.99,1.27-3.98,2.53-.99.62-1.97,1.24-2.72,1.7-.77.44-1.28.74-1.28.74,0,0,.04,2.33.07,4.67.02,2.37.03,4.74.03,4.74,0,0,2.06-1.18,4.12-2.37,2.08-1.22,4.16-2.44,4.16-2.44,0,0,0-.6-.01-1.49-.04-.9-.09-2.11-.15-3.31Z"/>
    <path class="st0" d="M465.71,381.69c-.38.22-.83.47-1.31.74-.5.25-1.03.53-1.55.8-2.1,1.06-4.2,2.13-4.2,2.13,0,0-.09,2.35-.18,4.7-.06,2.39-.3,4.72-.3,4.72,0,0,2.2-.97,4.28-2.07,2.12-1.1,4.25-2.2,4.25-2.2,0,0,.11-2.39.22-4.77.02-.59.05-1.18.07-1.73,0-.56,0-1.09,0-1.54,0-.9,0-1.49,0-1.49,0,0-.51.29-1.28.73Z"/>
    <path class="st0" d="M449.57,398.61s-.05.59-.13,1.47c-.09.88-.25,2.02-.4,3.18l-.63,4.67s2.22-.89,4.43-1.77c1.11-.45,2.24-.9,3.06-1.26.81-.37,1.36-.62,1.36-.62,0,0,.24-2.39.48-4.79.21-2.36.43-4.73.43-4.73,0,0-2.16.98-4.32,1.95-2.14.94-4.27,1.89-4.27,1.89Z"/>
    <path class="st0" d="M440.98,410.73c-.84.28-1.39.47-1.39.47l-.83,4.61c-.44,2.34-.89,4.67-.89,4.67,0,0,2.24-.76,4.48-1.52,2.27-.79,4.53-1.58,4.53-1.58,0,0,.11-.59.28-1.47.16-.88.4-2.03.56-3.24.34-2.37.68-4.73.68-4.73,0,0-2.19.85-4.38,1.71-1.07.43-2.21.8-3.05,1.09Z"/>
    <path class="st0" d="M433.31,421.84c-2.26.64-4.52,1.28-4.52,1.28,0,0-.54,2.3-1.08,4.6-.64,2.26-1.28,4.52-1.28,4.52,0,0,2.33-.57,4.66-1.14,2.29-.67,4.57-1.33,4.57-1.33,0,0,.57-2.33,1.14-4.66.27-1.15.55-2.3.75-3.17.21-.85.31-1.45.31-1.45,0,0-.55.2-1.42.44-.86.25-2,.58-3.14.91Z"/>
    <path class="st0" d="M418.71,434.02c-.84.2-1.43.3-1.43.3,0,0-.73,2.21-1.46,4.43-.76,2.24-1.52,4.48-1.52,4.48,0,0,2.34-.44,4.67-.89,2.37-.47,4.73-.94,4.73-.94,0,0,.2-.56.46-1.43.26-.87.61-2.02.95-3.17.67-2.29,1.33-4.57,1.33-4.57l-4.6,1.08c-1.14.26-2.27.52-3.13.71Z"/>
    <path class="st0" d="M409.65,444.03c-2.34.32-4.67.63-4.67.63,0,0-.85,2.19-1.71,4.38-.44,1.1-.87,2.22-1.22,3.03-.36.8-.6,1.34-.6,1.34,0,0,.6-.06,1.49-.14.89-.1,2.05-.27,3.23-.43l4.74-.68s.89-2.22,1.77-4.43c.45-1.09.83-2.24,1.13-3.08.29-.85.49-1.41.49-1.41,0,0-.58.11-1.45.27-.87.16-2.01.38-3.2.53Z"/>
    <path class="st0" d="M392.06,454.22s-.94,2.18-2.01,4.24c-1.06,2.1-2.13,4.2-2.13,4.2,0,0,2.39-.11,4.77-.22,2.42-.09,4.78-.35,4.78-.35,0,0,1.01-2.18,2.02-4.37.98-2.16,1.95-4.32,1.95-4.32,0,0-2.36.21-4.73.43-2.33.19-4.66.38-4.66.38Z"/>
    <path class="st0" d="M381.51,462.9c-.55,0-1.07,0-1.52,0-.88,0-1.47-.01-1.47-.01,0,0-1.15,2.04-2.3,4.08-1.18,2.06-2.37,4.12-2.37,4.12,0,0,2.37.02,4.74.03,2.4,0,4.81,0,4.81,0,0,0,.3-.52.75-1.29.22-.39.48-.84.76-1.32.26-.5.54-1.03.82-1.57,1.1-2.12,2.2-4.24,2.2-4.24,0,0-2.35.09-4.7.18-.58.02-1.16.04-1.71.05Z"/>
    <path class="st0" d="M369.12,470.87c-2.35-.14-4.69-.28-4.69-.28,0,0-1.27,1.99-2.53,3.98-.63,1.02-1.33,1.93-1.83,2.66-.51.72-.85,1.2-.85,1.2,0,0,.59.06,1.49.15.89.07,2.1.23,3.28.28,2.38.12,4.76.25,4.76.25,0,0,1.3-2.01,2.6-4.02.64-1,1.27-1.99,1.75-2.74.45-.77.76-1.29.76-1.29,0,0-.59,0-1.47-.02-.89-.05-2.08-.11-3.27-.17Z"/>
    <path class="st0" d="M349.88,477.42s-.09.12-.24.33c-.15.2-.37.49-.64.83-.53.69-1.25,1.61-1.96,2.54-1.46,1.86-2.92,3.72-2.92,3.72,0,0,2.35.36,4.71.71,1.19.17,2.39.34,3.28.47.45.06.83.12,1.09.15.26.03.41.04.41.04,0,0,1.42-1.95,2.84-3.9,1.38-1.94,2.76-3.87,2.76-3.87,0,0-2.35-.25-4.7-.49-2.32-.26-4.63-.53-4.63-.53Z"/>
    <path class="st0" d="M334.87,483.14s-1.53,1.78-3.06,3.56c-.78.89-1.56,1.79-2.15,2.46-.59.68-.99,1.11-.99,1.11,0,0,.58.14,1.44.31.87.18,2.03.42,3.19.65,2.35.47,4.7.93,4.7.93,0,0,1.57-1.79,3.14-3.58,1.5-1.87,2.99-3.75,2.99-3.75,0,0-2.32-.37-4.63-.74-2.31-.48-4.63-.96-4.63-.96Z"/>
    <path class="st0" d="M319.53,487.9s-.41.43-1.01,1.06c-.61.63-1.42,1.51-2.26,2.33-1.7,1.62-3.4,3.24-3.4,3.24,0,0,2.29.7,4.58,1.39,1.15.34,2.3.6,3.17.83.87.22,1.45.36,1.45.36,0,0,1.68-1.72,3.35-3.43,1.64-1.71,3.27-3.41,3.27-3.41,0,0-2.31-.59-4.61-1.17-2.27-.6-4.53-1.2-4.53-1.2Z"/>
    <path class="st0" d="M305.29,492.14c-.82-.26-1.38-.48-1.38-.48,0,0-1.76,1.53-3.52,3.05-1.8,1.53-3.6,3.07-3.6,3.07,0,0,2.23.81,4.47,1.63,2.27.81,4.55,1.61,4.55,1.61,0,0,.46-.37,1.13-1,.66-.61,1.55-1.43,2.44-2.25,1.74-1.63,3.48-3.25,3.48-3.25,0,0-2.25-.71-4.51-1.41-1.11-.36-2.22-.71-3.05-.98Z"/>
    <path class="st0" d="M292.39,496.11c-2.17-.93-4.34-1.86-4.34-1.86,0,0-1.85,1.44-3.71,2.88-.94.72-1.89,1.44-2.6,1.99-.71.55-1.2.88-1.2.88,0,0,.54.27,1.35.61.82.35,1.9.81,2.99,1.28,2.21.92,4.42,1.85,4.42,1.85,0,0,1.89-1.44,3.79-2.89.94-.71,1.85-1.53,2.54-2.09.68-.58,1.14-.96,1.14-.96,0,0-.55-.2-1.38-.51-.83-.32-1.92-.69-3.01-1.16Z"/>
    <path class="st0" d="M272.06,495.85s-1.92,1.36-3.89,2.68c-1.99,1.24-3.98,2.49-3.98,2.49,0,0,2.11,1.14,4.21,2.28,2.12,1.07,4.28,2.09,4.28,2.09,0,0,1.98-1.35,3.97-2.7,1.94-1.35,3.89-2.69,3.89-2.69,0,0-2.14-1.04-4.28-2.07-2.1-1.04-4.2-2.08-4.2-2.08Z"/>
    <path class="st0" d="M256,496.44s-2.03,1.14-4.06,2.29c-2.07,1.14-4.14,2.28-4.14,2.28,0,0,2.03,1.25,4.06,2.49,2.07,1.25,4.14,2.49,4.14,2.49,0,0,2.07-1.25,4.14-2.49,2.03-1.25,4.06-2.49,4.06-2.49,0,0-2.07-1.14-4.14-2.29-2.03-1.14-4.06-2.29-4.06-2.29Z"/>
    <path class="st0" d="M239.94,495.85s-2.1,1.04-4.2,2.08c-2.14,1.03-4.28,2.07-4.28,2.07,0,0,1.94,1.35,3.89,2.69,1.98,1.35,3.97,2.7,3.97,2.7,0,0,2.16-1.02,4.28-2.09,2.11-1.14,4.21-2.28,4.21-2.28,0,0-1.99-1.24-3.98-2.49-1.97-1.31-3.89-2.68-3.89-2.68Z"/>
    <path class="st0" d="M227.66,497.13c-1.86-1.44-3.71-2.88-3.71-2.88,0,0-2.17.93-4.34,1.86-1.1.47-2.19.84-3.01,1.16-.83.31-1.38.51-1.38.51,0,0,.46.38,1.14.96.69.56,1.6,1.38,2.54,2.09,1.89,1.45,3.79,2.89,3.79,2.89,0,0,2.21-.92,4.42-1.85,1.09-.46,2.18-.93,2.99-1.28.81-.34,1.35-.61,1.35-.61,0,0-.48-.32-1.2-.88-.71-.54-1.65-1.26-2.6-1.99Z"/>
    <path class="st0" d="M208.09,491.66s-.56.22-1.38.48c-.83.27-1.94.62-3.05.98-2.25.71-4.51,1.41-4.51,1.41,0,0,1.74,1.63,3.48,3.25.89.82,1.77,1.63,2.44,2.25.67.63,1.13,1,1.13,1,0,0,2.27-.81,4.55-1.61,2.23-.81,4.47-1.63,4.47-1.63,0,0-1.8-1.53-3.6-3.07-1.76-1.53-3.52-3.05-3.52-3.05Z"/>
    <path class="st0" d="M193.49,488.96c-.61-.64-1.01-1.06-1.01-1.06,0,0-2.27.6-4.53,1.2-2.31.59-4.61,1.17-4.61,1.17,0,0,1.64,1.71,3.27,3.41l3.35,3.43s.58-.15,1.45-.36c.87-.23,2.01-.49,3.17-.83,2.29-.7,4.58-1.39,4.58-1.39,0,0-1.7-1.62-3.4-3.24-.84-.81-1.65-1.7-2.26-2.33Z"/>
    <path class="st0" d="M180.19,486.7l-3.06-3.56s-2.31.48-4.63.96c-2.32.37-4.63.74-4.63.74,0,0,1.5,1.87,2.99,3.75,1.57,1.79,3.14,3.58,3.14,3.58,0,0,2.35-.47,4.7-.93,1.16-.24,2.32-.48,3.19-.65.86-.17,1.44-.31,1.44-.31,0,0-.4-.43-.99-1.11-.59-.67-1.37-1.57-2.15-2.46Z"/>
    <path class="st0" d="M162.99,478.58c-.26-.34-.48-.63-.64-.83-.15-.21-.23-.33-.23-.33,0,0-2.32.26-4.63.53l-4.7.49s1.38,1.94,2.76,3.87c1.42,1.95,2.84,3.9,2.84,3.9,0,0,.15-.02.41-.04.26-.04.64-.09,1.09-.15.89-.13,2.09-.3,3.28-.47,2.35-.36,4.71-.71,4.71-.71,0,0-1.46-1.86-2.92-3.72-.71-.92-1.43-1.85-1.96-2.54Z"/>
    <path class="st0" d="M150.1,474.57c-1.27-1.99-2.53-3.98-2.53-3.98,0,0-2.35.14-4.69.28-1.19.06-2.38.13-3.27.17-.88.01-1.47.02-1.47.02,0,0,.3.52.76,1.29.48.75,1.11,1.74,1.75,2.74l2.6,4.02s2.38-.12,4.76-.25c1.17-.05,2.39-.21,3.28-.28.89-.09,1.49-.15,1.49-.15,0,0-.34-.48-.85-1.2-.5-.73-1.19-1.65-1.83-2.67Z"/>
    <path class="st0" d="M133.48,462.87s-.59,0-1.47.01c-.44,0-.96,0-1.52,0-.55-.02-1.13-.04-1.71-.05-2.35-.09-4.7-.18-4.7-.18,0,0,1.1,2.12,2.2,4.25.28.53.56,1.07.82,1.57.28.48.54.93.76,1.32.45.77.75,1.29.75,1.29,0,0,2.4,0,4.81,0,2.37-.02,4.74-.03,4.74-.03,0,0-1.18-2.06-2.37-4.12-1.15-2.04-2.3-4.08-2.3-4.08Z"/>
    <path class="st0" d="M119.94,454.22s-2.33-.19-4.66-.38c-2.36-.21-4.73-.43-4.73-.43,0,0,.98,2.16,1.95,4.32,1.01,2.18,2.02,4.37,2.02,4.37,0,0,2.36.26,4.78.35,2.38.11,4.77.22,4.77.22,0,0-1.06-2.1-2.13-4.2-1.07-2.06-2.01-4.24-2.01-4.24Z"/>
    <path class="st0" d="M108.73,449.04c-.85-2.19-1.71-4.38-1.71-4.38,0,0-2.34-.32-4.67-.63-1.19-.15-2.33-.37-3.19-.53-.87-.16-1.45-.27-1.45-.27,0,0,.2.56.49,1.41.3.84.68,2,1.13,3.08.89,2.22,1.77,4.43,1.77,4.43,0,0,2.37.34,4.73.68,1.18.16,2.34.33,3.23.43.89.09,1.49.14,1.49.14,0,0-.24-.54-.6-1.34-.35-.81-.78-1.93-1.22-3.03Z"/>
    <path class="st0" d="M94.72,434.32s-.59-.1-1.43-.3c-.85-.19-1.99-.45-3.13-.71l-4.6-1.08s.67,2.29,1.33,4.57c.35,1.15.69,2.31.95,3.17.26.88.46,1.43.46,1.43,0,0,2.36.47,4.73.94,2.34.44,4.67.89,4.67.89,0,0-.76-2.24-1.52-4.48-.73-2.21-1.47-4.43-1.47-4.43Z"/>
    <path class="st0" d="M83.21,423.11s-2.26-.64-4.52-1.28c-1.14-.33-2.28-.66-3.14-.91-.87-.24-1.42-.44-1.42-.44,0,0,.1.59.31,1.45.2.86.48,2.02.75,3.17.57,2.33,1.14,4.66,1.14,4.66,0,0,2.29.67,4.57,1.33,2.33.57,4.65,1.14,4.65,1.14,0,0-.64-2.26-1.28-4.52l-1.08-4.6Z"/>
    <path class="st0" d="M72.42,411.2s-.56-.19-1.39-.47c-.84-.29-1.97-.65-3.05-1.09-2.19-.85-4.38-1.71-4.38-1.71,0,0,.34,2.37.68,4.74.16,1.2.4,2.36.56,3.24.17.88.28,1.47.28,1.47,0,0,2.27.79,4.53,1.58l4.48,1.52s-.44-2.34-.89-4.67c-.42-2.31-.83-4.61-.83-4.61Z"/>
    <path class="st0" d="M62.56,400.08c-.08-.88-.13-1.47-.13-1.47,0,0-2.14-.94-4.27-1.89-2.16-.98-4.32-1.95-4.32-1.95,0,0,.21,2.36.43,4.73l.48,4.79s.54.25,1.36.62c.82.36,1.95.81,3.06,1.26,2.21.89,4.43,1.77,4.43,1.77,0,0-.32-2.34-.63-4.67-.15-1.16-.31-2.31-.4-3.18Z"/>
    <path class="st0" d="M53.36,385.35l-4.2-2.13c-.53-.27-1.06-.54-1.55-.8-.48-.27-.93-.52-1.31-.74-.77-.44-1.28-.73-1.28-.73,0,0,0,.6,0,1.49,0,.45,0,.97,0,1.54.02.55.05,1.14.07,1.74l.22,4.77s2.12,1.1,4.25,2.2c2.08,1.11,4.28,2.07,4.28,2.07,0,0-.24-2.33-.3-4.72-.09-2.35-.18-4.7-.18-4.7Z"/>
    <path class="st0" d="M45.05,376.22c.04-2.33.07-4.67.07-4.67,0,0-.51-.29-1.28-.74-.74-.46-1.73-1.08-2.71-1.7-1.99-1.27-3.98-2.53-3.98-2.53,0,0-.12,2.38-.24,4.76-.05,1.21-.11,2.41-.15,3.32,0,.9-.01,1.49-.01,1.49,0,0,2.08,1.22,4.16,2.44,2.06,1.18,4.12,2.37,4.12,2.37,0,0,.02-2.37.03-4.74Z"/>
    <path class="st0" d="M37.43,361.9c.06-1.16.23-2.35.31-3.23.09-.88.16-1.46.16-1.46,0,0-1.92-1.35-3.84-2.69-1.94-1.38-3.87-2.76-3.87-2.76,0,0-.25,2.35-.49,4.7-.23,2.39-.46,4.78-.46,4.78,0,0,.49.35,1.21.87.74.51,1.66,1.23,2.69,1.88,2.01,1.3,4.02,2.6,4.02,2.6,0,0,.14-2.35.28-4.69Z"/>
    <path class="st0" d="M30.18,351.75s.02-.15.05-.4c.04-.26.09-.63.16-1.07.13-.88.31-2.06.49-3.23.37-2.32.74-4.63.74-4.63,0,0-1.86-1.46-3.72-2.92-1.78-1.53-3.56-3.06-3.56-3.06,0,0-.46,2.35-.93,4.7-.36,2.35-.71,4.71-.71,4.71,0,0,1.87,1.5,3.75,2.99.93.73,1.86,1.46,2.56,2.01.35.27.64.5.84.66.21.15.33.24.33.24Z"/>
    <path class="st0" d="M25.3,331.81c.24-1.14.49-2.28.67-3.14.18-.85.32-1.42.32-1.42,0,0-1.69-1.6-3.39-3.2-1.71-1.64-3.41-3.27-3.41-3.27,0,0-.59,2.31-1.17,4.61-.58,2.34-1.15,4.69-1.15,4.69,0,0,.44.41,1.12,1.02.68.6,1.58,1.4,2.48,2.2,1.79,1.57,3.58,3.14,3.58,3.14,0,0,.48-2.31.96-4.63Z"/>
    <path class="st0" d="M19.49,320.79s.15-.57.37-1.43c.23-.86.5-1.98.85-3.11.71-2.25,1.41-4.51,1.41-4.51l-3.24-3.4c-.81-.87-1.63-1.73-2.24-2.38-.62-.65-.99-1.1-.99-1.1,0,0-.22.57-.47,1.41-.26.85-.62,1.98-.97,3.11-.7,2.29-1.39,4.58-1.39,4.58,0,0,1.63,1.74,3.25,3.48.82.86,1.71,1.69,2.34,2.32.64.62,1.07,1.04,1.07,1.04Z"/>
    <path class="st0" d="M17.29,300.39c.82-2.19,1.64-4.39,1.64-4.39,0,0-.38-.45-.96-1.12-.56-.67-1.37-1.57-2.08-2.49-1.44-1.86-2.88-3.71-2.88-3.71,0,0-.92,2.21-1.85,4.42-.47,1.12-.83,2.23-1.15,3.07-.3.84-.51,1.41-.51,1.41,0,0,1.54,1.84,3.08,3.68,1.53,1.8,3.07,3.6,3.07,3.6,0,0,.81-2.23,1.63-4.47Z"/>
    <path class="st0" d="M13.01,288.68s.93-2.17,1.86-4.34c.47-1.07.93-2.14,1.28-2.94.34-.8.61-1.33.61-1.33,0,0-1.34-1.9-2.68-3.81-1.35-1.94-2.69-3.89-2.69-3.89,0,0-1.04,2.14-2.07,4.28-1.03,2.18-2.06,4.36-2.06,4.36,0,0,.32.49.88,1.22.54.72,1.27,1.69,1.99,2.65,1.44,1.89,2.89,3.79,2.89,3.79Z"/>
    <path class="st0" d="M11.38,272.38s1.02-2.12,2.09-4.21c1.14-2.07,2.29-4.14,2.29-4.14,0,0-1.24-1.99-2.49-3.98-1.25-2.03-2.49-4.06-2.49-4.06,0,0-1.14,2.07-2.29,4.14-1.14,2.11-2.28,4.21-2.28,4.21,0,0,1.25,2.03,2.49,4.06,1.32,2.01,2.68,3.97,2.68,3.97Z"/>
    <path class="st0" d="M10.78,256s1.25-2.03,2.49-4.06c1.25-1.99,2.49-3.98,2.49-3.98,0,0-1.14-2.07-2.29-4.14-1.07-2.08-2.09-4.2-2.09-4.2,0,0-1.36,1.96-2.68,3.97-1.25,2.03-2.49,4.06-2.49,4.06,0,0,1.14,2.11,2.28,4.21,1.14,2.07,2.28,4.14,2.28,4.14Z"/>
    <path class="st0" d="M11.38,239.62s1.35-1.94,2.69-3.89c1.34-1.91,2.68-3.81,2.68-3.81,0,0-.27-.53-.61-1.33-.35-.8-.82-1.87-1.28-2.94l-1.86-4.34s-1.44,1.89-2.89,3.79c-.72.96-1.45,1.93-1.99,2.65-.56.73-.88,1.22-.88,1.22,0,0,1.03,2.18,2.06,4.36,1.03,2.14,2.07,4.28,2.07,4.28Z"/>
    <path class="st0" d="M11.16,218.9c.92,2.21,1.85,4.42,1.85,4.42,0,0,1.44-1.86,2.88-3.71.71-.92,1.52-1.81,2.08-2.49.57-.67.96-1.12.96-1.12,0,0-.82-2.19-1.64-4.39-.81-2.23-1.63-4.47-1.63-4.47,0,0-1.53,1.8-3.07,3.6l-3.08,3.68s.2.56.51,1.4c.32.84.68,1.95,1.15,3.07Z"/>
    <path class="st0" d="M15.19,205.74c.25.84.47,1.41.47,1.41,0,0,.37-.45.99-1.1.61-.65,1.42-1.52,2.24-2.38,1.62-1.7,3.24-3.4,3.24-3.4,0,0-.71-2.25-1.41-4.51-.35-1.13-.61-2.26-.85-3.11-.22-.85-.37-1.42-.37-1.42,0,0-.43.42-1.07,1.04-.63.63-1.52,1.46-2.34,2.32-1.63,1.74-3.26,3.48-3.26,3.48,0,0,.7,2.29,1.39,4.58.35,1.13.7,2.26.97,3.11Z"/>
    <path class="st0" d="M19.49,191.21s1.71-1.64,3.41-3.27c1.69-1.6,3.39-3.2,3.39-3.2,0,0-.14-.57-.32-1.42-.18-.86-.43-2-.67-3.14-.48-2.31-.96-4.63-.96-4.63l-3.58,3.14c-.9.8-1.8,1.6-2.48,2.2-.68.6-1.12,1.02-1.12,1.02,0,0,.58,2.34,1.15,4.69.59,2.31,1.17,4.61,1.17,4.61Z"/>
    <path class="st0" d="M24.35,175.56l3.56-3.06c1.86-1.46,3.72-2.92,3.72-2.92,0,0-.37-2.32-.74-4.63-.18-1.17-.36-2.35-.49-3.23-.07-.44-.12-.81-.16-1.07-.03-.26-.05-.4-.05-.4,0,0-.12.09-.33.24-.2.16-.49.38-.84.66-.7.55-1.63,1.28-2.56,2.01-1.87,1.5-3.75,2.99-3.75,2.99,0,0,.36,2.35.71,4.71.46,2.35.93,4.7.93,4.7Z"/>
    <path class="st0" d="M30.18,160.25s1.94-1.38,3.87-2.76l3.84-2.69s-.06-.58-.16-1.46c-.08-.87-.25-2.07-.31-3.23-.14-2.34-.28-4.69-.28-4.69,0,0-2.01,1.3-4.02,2.6-1.03.65-1.95,1.36-2.69,1.88-.73.52-1.21.87-1.21.87,0,0,.23,2.39.46,4.78l.49,4.7Z"/>
    <path class="st0" d="M36.9,140.65c.12,2.38.24,4.76.24,4.76,0,0,1.99-1.27,3.98-2.53.99-.62,1.97-1.24,2.72-1.7.77-.44,1.28-.74,1.28-.74,0,0-.04-2.33-.07-4.67-.02-2.37-.03-4.74-.03-4.74,0,0-2.06,1.18-4.12,2.37-2.08,1.22-4.16,2.44-4.16,2.44,0,0,0,.6.01,1.49.04.9.09,2.11.15,3.31Z"/>
    <path class="st0" d="M46.29,130.31c.38-.22.83-.47,1.31-.74.5-.25,1.03-.53,1.55-.8l4.2-2.13s.09-2.35.18-4.7c.06-2.39.3-4.72.3-4.72,0,0-2.2.97-4.28,2.07-2.12,1.1-4.25,2.2-4.25,2.2,0,0-.11,2.39-.22,4.77-.02.59-.05,1.18-.07,1.73,0,.56,0,1.09,0,1.54,0,.9,0,1.49,0,1.49,0,0,.51-.29,1.28-.73Z"/>
    <path class="st0" d="M62.43,113.39s.05-.59.13-1.47c.09-.88.25-2.02.4-3.18.32-2.34.63-4.67.63-4.67,0,0-2.22.89-4.43,1.77-1.11.45-2.24.9-3.06,1.26-.81.37-1.36.62-1.36.62,0,0-.24,2.39-.48,4.79-.21,2.36-.43,4.73-.43,4.73,0,0,2.16-.98,4.32-1.95,2.14-.94,4.27-1.89,4.27-1.89Z"/>
    <path class="st0" d="M71.02,101.27c.84-.28,1.39-.47,1.39-.47,0,0,.42-2.3.83-4.61.44-2.34.89-4.67.89-4.67,0,0-2.24.76-4.48,1.52-2.27.79-4.53,1.58-4.53,1.58,0,0-.11.59-.28,1.47-.16.88-.4,2.03-.56,3.24-.34,2.37-.68,4.73-.68,4.73,0,0,2.19-.85,4.38-1.71,1.07-.43,2.21-.8,3.05-1.09Z"/>
    <path class="st0" d="M78.69,90.17c2.26-.64,4.52-1.28,4.52-1.28,0,0,.54-2.3,1.08-4.6.64-2.26,1.28-4.52,1.28-4.52,0,0-2.33.57-4.66,1.14-2.29.67-4.57,1.33-4.57,1.33,0,0-.57,2.33-1.14,4.66-.27,1.15-.55,2.3-.75,3.17-.21.85-.31,1.45-.31,1.45,0,0,.55-.2,1.42-.44.86-.25,2-.58,3.14-.91Z"/>
    <path class="st0" d="M93.29,77.98c.84-.2,1.43-.3,1.43-.3,0,0,.73-2.21,1.46-4.43.76-2.24,1.52-4.48,1.52-4.48,0,0-2.34.44-4.67.89-2.37.47-4.73.94-4.73.94,0,0-.2.56-.46,1.43-.26.87-.6,2.02-.95,3.17-.67,2.29-1.33,4.57-1.33,4.57,0,0,2.3-.54,4.6-1.08,1.14-.26,2.27-.52,3.13-.71Z"/>
    <path class="st0" d="M102.35,67.97c2.34-.32,4.67-.63,4.67-.63,0,0,.85-2.19,1.71-4.38.44-1.1.87-2.22,1.22-3.03.36-.8.6-1.34.6-1.34,0,0-.6.06-1.49.14-.89.1-2.05.27-3.23.43-2.37.34-4.74.68-4.74.68,0,0-.89,2.22-1.77,4.43-.45,1.09-.83,2.24-1.13,3.08-.29.85-.49,1.41-.49,1.41,0,0,.58-.11,1.45-.27.87-.16,2.01-.38,3.2-.53Z"/>
    <path class="st0" d="M119.94,57.78s.94-2.18,2.01-4.24l2.13-4.2s-2.39.11-4.77.22c-2.42.09-4.78.35-4.78.35,0,0-1.01,2.18-2.02,4.37-.98,2.16-1.95,4.32-1.95,4.32,0,0,2.36-.21,4.73-.43,2.33-.19,4.66-.38,4.66-.38Z"/>
    <path class="st0" d="M130.49,49.1c.55,0,1.07,0,1.52,0,.88,0,1.47.01,1.47.01,0,0,1.15-2.04,2.3-4.08,1.18-2.06,2.37-4.12,2.37-4.12,0,0-2.37-.02-4.74-.03-2.4,0-4.81,0-4.81,0,0,0-.3.52-.75,1.29-.22.39-.48.84-.76,1.32-.26.5-.54,1.03-.82,1.57-1.1,2.12-2.2,4.24-2.2,4.24,0,0,2.35-.09,4.7-.18.58-.02,1.16-.04,1.71-.06Z"/>
    <path class="st0" d="M142.88,41.13c2.35.14,4.69.28,4.69.28,0,0,1.27-1.99,2.53-3.98.63-1.02,1.33-1.93,1.83-2.66.51-.72.85-1.2.85-1.2,0,0-.59-.06-1.49-.15-.89-.07-2.1-.23-3.28-.28-2.38-.12-4.76-.25-4.76-.25,0,0-1.3,2.01-2.6,4.02-.64,1-1.27,1.99-1.75,2.74-.45.77-.76,1.29-.76,1.29,0,0,.59,0,1.47.02.89.05,2.08.11,3.27.17Z"/>
    <path class="st0" d="M162.12,34.58s.09-.12.24-.33c.15-.2.37-.49.64-.83.53-.69,1.25-1.61,1.96-2.54,1.46-1.86,2.92-3.72,2.92-3.72,0,0-2.35-.36-4.71-.71-1.19-.17-2.39-.34-3.28-.47-.45-.06-.83-.12-1.09-.15-.26-.03-.41-.04-.41-.04,0,0-1.42,1.95-2.84,3.9-1.38,1.94-2.76,3.87-2.76,3.87,0,0,2.35.25,4.7.49l4.63.53Z"/>
    <path class="st0" d="M177.13,28.86s1.53-1.78,3.06-3.56c.78-.89,1.56-1.79,2.15-2.46.59-.68.99-1.11.99-1.11,0,0-.58-.14-1.44-.31-.87-.18-2.03-.42-3.19-.65l-4.7-.93s-1.57,1.79-3.14,3.58l-2.99,3.75s2.32.37,4.63.74c2.31.48,4.63.96,4.63.96Z"/>
    <path class="st0" d="M192.47,24.1s.41-.43,1.01-1.06c.61-.63,1.42-1.51,2.26-2.33l3.4-3.24s-2.29-.7-4.58-1.39c-1.15-.34-2.3-.6-3.17-.83-.87-.22-1.45-.36-1.45-.36l-3.35,3.43c-1.64,1.71-3.27,3.41-3.27,3.41l4.61,1.17c2.27.6,4.53,1.2,4.53,1.2Z"/>
    <path class="st0" d="M206.71,19.86c.82.26,1.38.48,1.38.48,0,0,1.76-1.53,3.52-3.05,1.8-1.53,3.6-3.07,3.6-3.07,0,0-2.23-.81-4.47-1.63-2.27-.81-4.55-1.61-4.55-1.61,0,0-.46.37-1.13,1-.66.61-1.55,1.43-2.44,2.25-1.74,1.63-3.48,3.25-3.48,3.25,0,0,2.25.71,4.51,1.41,1.11.36,2.22.71,3.05.98Z"/>
    <path class="st0" d="M219.61,15.89c2.17.93,4.34,1.86,4.34,1.86,0,0,1.85-1.44,3.71-2.88.94-.72,1.89-1.44,2.6-1.99.71-.55,1.2-.88,1.2-.88,0,0-.54-.27-1.35-.61-.82-.35-1.9-.81-2.99-1.28-2.21-.92-4.42-1.85-4.42-1.85,0,0-1.89,1.44-3.79,2.89-.94.71-1.85,1.53-2.54,2.09-.68.58-1.14.96-1.14.96,0,0,.55.2,1.38.51.83.32,1.92.69,3.01,1.16Z"/>
    <path class="st0" d="M239.94,16.15s1.92-1.36,3.89-2.68c1.99-1.24,3.98-2.49,3.98-2.49,0,0-2.11-1.14-4.21-2.28-2.12-1.07-4.28-2.09-4.28-2.09l-3.97,2.7c-1.94,1.35-3.89,2.69-3.89,2.69,0,0,2.14,1.04,4.28,2.07,2.1,1.04,4.2,2.08,4.2,2.08Z"/>
    <path class="st0" d="M256,15.56s2.03-1.14,4.06-2.29c2.07-1.14,4.14-2.28,4.14-2.28,0,0-2.03-1.25-4.06-2.49-2.07-1.25-4.14-2.49-4.14-2.49,0,0-2.07,1.25-4.14,2.49-2.03,1.25-4.06,2.49-4.06,2.49,0,0,2.07,1.14,4.14,2.29,2.03,1.14,4.06,2.29,4.06,2.29Z"/>
    <path class="st0" d="M272.06,16.15s2.1-1.04,4.2-2.08c2.14-1.03,4.28-2.07,4.28-2.07,0,0-1.94-1.35-3.89-2.69l-3.97-2.7s-2.16,1.02-4.28,2.09c-2.11,1.14-4.21,2.28-4.21,2.28,0,0,1.99,1.24,3.98,2.49,1.97,1.31,3.89,2.68,3.89,2.68Z"/>
    <path class="st0" d="M284.34,14.87l3.71,2.88s2.17-.93,4.34-1.86c1.1-.47,2.19-.84,3.01-1.16.83-.31,1.38-.51,1.38-.51,0,0-.46-.38-1.14-.96-.69-.56-1.6-1.38-2.54-2.09-1.89-1.45-3.79-2.89-3.79-2.89,0,0-2.21.92-4.42,1.85-1.09.46-2.18.93-2.99,1.27-.81.34-1.35.61-1.35.61,0,0,.48.32,1.2.88.71.54,1.65,1.26,2.6,1.99Z"/>
    <path class="st0" d="M303.91,20.34s.56-.22,1.38-.48c.83-.27,1.94-.62,3.05-.98,2.25-.71,4.51-1.41,4.51-1.41,0,0-1.74-1.63-3.48-3.26-.89-.82-1.77-1.63-2.44-2.25-.67-.63-1.13-1-1.13-1l-4.55,1.61c-2.23.81-4.47,1.63-4.47,1.63,0,0,1.8,1.53,3.6,3.07,1.76,1.53,3.52,3.05,3.52,3.05Z"/>
    <path class="st0" d="M318.51,23.04c.61.64,1.01,1.06,1.01,1.06,0,0,2.27-.6,4.53-1.2,2.3-.59,4.61-1.17,4.61-1.17,0,0-1.64-1.71-3.27-3.41-1.68-1.72-3.35-3.44-3.35-3.44,0,0-.58.15-1.45.36-.87.23-2.01.49-3.17.83-2.29.7-4.58,1.39-4.58,1.39,0,0,1.7,1.62,3.4,3.24.84.81,1.65,1.7,2.26,2.33Z"/>
    <path class="st0" d="M331.81,25.3c1.53,1.78,3.06,3.56,3.06,3.56,0,0,2.31-.48,4.63-.96,2.32-.37,4.63-.74,4.63-.74,0,0-1.5-1.87-2.99-3.75-1.57-1.79-3.14-3.58-3.14-3.58,0,0-2.35.47-4.7.93-1.16.24-2.32.48-3.19.65-.86.18-1.44.31-1.44.31,0,0,.4.43.99,1.11.59.67,1.37,1.57,2.15,2.46Z"/>
    <path class="st0" d="M349.01,33.42c.26.34.48.63.64.83.15.21.24.33.24.33,0,0,2.32-.26,4.63-.53,2.35-.25,4.7-.49,4.7-.49,0,0-1.38-1.94-2.76-3.87-1.42-1.95-2.84-3.9-2.84-3.9,0,0-.15.02-.41.04-.26.04-.64.09-1.09.15-.89.13-2.09.3-3.28.47-2.35.36-4.71.71-4.71.71,0,0,1.46,1.86,2.92,3.72.71.92,1.43,1.85,1.96,2.54Z"/>
    <path class="st0" d="M361.9,37.43c1.27,1.99,2.53,3.98,2.53,3.98,0,0,2.35-.14,4.69-.28,1.19-.06,2.38-.13,3.27-.17.88-.01,1.47-.02,1.47-.02,0,0-.3-.52-.76-1.29-.48-.75-1.11-1.74-1.75-2.74-1.3-2.01-2.6-4.02-2.6-4.02,0,0-2.38.12-4.76.25-1.17.05-2.39.21-3.28.28-.89.09-1.48.15-1.48.15,0,0,.34.48.85,1.2.5.73,1.19,1.65,1.83,2.67Z"/>
    <path class="st0" d="M378.52,49.13s.59,0,1.47-.01c.44,0,.96,0,1.52,0,.55.02,1.13.04,1.71.05,2.35.09,4.7.18,4.7.18,0,0-1.1-2.12-2.2-4.25-.28-.53-.56-1.07-.82-1.57-.28-.48-.54-.93-.76-1.32-.45-.77-.75-1.29-.75-1.29,0,0-2.4,0-4.81,0-2.37.02-4.74.03-4.74.03,0,0,1.18,2.06,2.37,4.12,1.15,2.04,2.3,4.08,2.3,4.08Z"/>
    <path class="st0" d="M392.06,57.78s2.33.19,4.66.38c2.36.21,4.73.43,4.73.43,0,0-.98-2.16-1.95-4.32-1.01-2.18-2.02-4.37-2.02-4.37,0,0-2.36-.26-4.78-.35-2.39-.11-4.77-.22-4.77-.22,0,0,1.06,2.1,2.13,4.2,1.07,2.06,2.01,4.24,2.01,4.24Z"/>
    <path class="st0" d="M403.27,62.96c.85,2.19,1.71,4.38,1.71,4.38,0,0,2.34.32,4.67.63,1.19.15,2.33.37,3.19.53.87.16,1.45.27,1.45.27,0,0-.2-.56-.49-1.41-.3-.84-.68-2-1.13-3.08-.89-2.22-1.77-4.43-1.77-4.43,0,0-2.37-.34-4.73-.68-1.18-.16-2.34-.33-3.23-.43-.89-.09-1.49-.14-1.49-.14,0,0,.24.54.6,1.34.35.81.78,1.93,1.22,3.03Z"/>
    <path class="st0" d="M417.28,77.68s.59.1,1.43.3c.85.19,1.99.45,3.13.71,2.3.54,4.6,1.08,4.6,1.08,0,0-.67-2.29-1.33-4.57-.35-1.15-.69-2.31-.95-3.17-.26-.88-.46-1.43-.46-1.43,0,0-2.36-.47-4.73-.94-2.34-.44-4.67-.89-4.67-.89,0,0,.76,2.24,1.52,4.48.73,2.21,1.47,4.43,1.47,4.43Z"/>
    <path class="st0" d="M428.79,88.89s2.26.64,4.52,1.28c1.14.33,2.28.66,3.14.91.87.24,1.42.44,1.42.44,0,0-.11-.59-.31-1.45-.2-.86-.48-2.02-.75-3.17l-1.14-4.66s-2.29-.67-4.57-1.33c-2.33-.57-4.65-1.14-4.65-1.14,0,0,.64,2.26,1.28,4.52.54,2.3,1.08,4.6,1.08,4.6Z"/>
    <path class="st0" d="M439.58,100.8s.56.19,1.39.47c.83.29,1.97.65,3.05,1.09,2.19.85,4.38,1.71,4.38,1.71,0,0-.34-2.37-.68-4.74-.16-1.2-.4-2.36-.56-3.24-.17-.88-.28-1.47-.28-1.47,0,0-2.27-.79-4.53-1.58-2.24-.76-4.48-1.52-4.48-1.52,0,0,.44,2.34.89,4.67.42,2.31.83,4.61.83,4.61Z"/>
    <path class="st0" d="M449.44,111.92c.08.88.13,1.47.13,1.47,0,0,2.14.94,4.27,1.89,2.16.98,4.32,1.95,4.32,1.95,0,0-.21-2.36-.43-4.73-.24-2.4-.48-4.79-.48-4.79,0,0-.54-.25-1.36-.62-.82-.36-1.95-.81-3.06-1.26-2.21-.89-4.43-1.77-4.43-1.77,0,0,.32,2.34.63,4.67.15,1.16.31,2.31.4,3.18Z"/>
    <path class="st0" d="M458.64,126.65s2.1,1.06,4.2,2.13c.53.27,1.06.54,1.55.8.48.27.93.52,1.31.74.77.44,1.28.73,1.28.73,0,0,0-.6,0-1.49,0-.45,0-.98,0-1.54-.02-.55-.05-1.14-.07-1.74-.11-2.39-.22-4.77-.22-4.77,0,0-2.12-1.1-4.25-2.2-2.08-1.11-4.28-2.07-4.28-2.07,0,0,.24,2.33.3,4.72.09,2.35.18,4.7.18,4.7Z"/>
    <path class="st0" d="M466.95,135.78c-.04,2.33-.07,4.67-.07,4.67,0,0,.51.29,1.28.74.74.46,1.73,1.08,2.71,1.7,1.99,1.27,3.98,2.53,3.98,2.53,0,0,.12-2.38.24-4.76.05-1.21.11-2.41.15-3.32,0-.9.01-1.49.01-1.49,0,0-2.08-1.22-4.16-2.44-2.06-1.18-4.12-2.37-4.12-2.37,0,0-.02,2.37-.03,4.74Z"/>
    <path class="st0" d="M474.57,150.1c-.06,1.16-.23,2.36-.31,3.23-.1.88-.16,1.46-.16,1.46,0,0,1.92,1.35,3.84,2.69,1.94,1.38,3.87,2.76,3.87,2.76l.49-4.7c.23-2.39.46-4.78.46-4.78,0,0-.49-.35-1.21-.87-.74-.51-1.66-1.23-2.69-1.88-2.01-1.3-4.02-2.6-4.02-2.6,0,0-.14,2.35-.28,4.69Z"/>
    <path class="st0" d="M481.82,160.25s-.02.15-.05.4c-.04.26-.09.63-.16,1.07-.13.88-.31,2.06-.49,3.23-.37,2.32-.74,4.63-.74,4.63,0,0,1.86,1.46,3.72,2.92,1.78,1.53,3.56,3.06,3.56,3.06,0,0,.46-2.35.93-4.7.36-2.35.71-4.71.71-4.71,0,0-1.87-1.5-3.75-2.99-.93-.73-1.86-1.46-2.56-2.01-.35-.27-.64-.5-.84-.66-.21-.15-.33-.24-.33-.24Z"/>
    <path class="st0" d="M486.7,180.19c-.24,1.14-.49,2.28-.67,3.14-.18.85-.32,1.42-.32,1.42,0,0,1.69,1.6,3.39,3.2,1.71,1.64,3.41,3.27,3.41,3.27,0,0,.59-2.31,1.17-4.61.58-2.34,1.15-4.69,1.15-4.69,0,0-.44-.41-1.12-1.02-.68-.6-1.58-1.4-2.48-2.2-1.79-1.57-3.58-3.14-3.58-3.14,0,0-.48,2.31-.96,4.63Z"/>
    <path class="st0" d="M492.51,191.21s-.15.57-.37,1.43c-.23.86-.5,1.98-.85,3.11-.71,2.25-1.41,4.51-1.41,4.51,0,0,1.62,1.7,3.24,3.4.81.87,1.63,1.73,2.24,2.38.62.65.99,1.1.99,1.1,0,0,.22-.57.47-1.41.26-.85.62-1.98.97-3.11.7-2.29,1.39-4.58,1.39-4.58,0,0-1.63-1.74-3.25-3.48-.82-.86-1.71-1.69-2.34-2.32-.64-.62-1.07-1.04-1.07-1.04Z"/>
    <path class="st0" d="M494.71,211.61l-1.64,4.39s.38.45.96,1.12c.56.67,1.37,1.57,2.08,2.49,1.44,1.85,2.88,3.71,2.88,3.71,0,0,.92-2.21,1.85-4.42.47-1.12.83-2.23,1.15-3.07.3-.84.51-1.41.51-1.41,0,0-1.54-1.84-3.08-3.68-1.53-1.8-3.07-3.6-3.07-3.6l-1.63,4.47Z"/>
    <path class="st0" d="M498.99,223.32s-.93,2.17-1.86,4.34c-.47,1.07-.93,2.14-1.28,2.94-.34.8-.61,1.33-.61,1.33,0,0,1.34,1.9,2.68,3.81,1.35,1.94,2.69,3.89,2.69,3.89,0,0,1.04-2.14,2.07-4.28,1.03-2.18,2.06-4.36,2.06-4.36,0,0-.32-.49-.88-1.22-.54-.72-1.27-1.69-1.99-2.65-1.44-1.89-2.89-3.79-2.89-3.79Z"/>
    <path class="st0" d="M500.62,239.62s-1.02,2.12-2.09,4.21c-1.14,2.07-2.29,4.14-2.29,4.14l2.49,3.98c1.25,2.03,2.49,4.06,2.49,4.06,0,0,1.14-2.07,2.29-4.14,1.14-2.11,2.28-4.21,2.28-4.21l-2.49-4.06c-1.32-2.01-2.68-3.97-2.68-3.97Z"/>
  </g>
  <g>
    <g>
      <path class="st1" d="M239.9,131.77c4.09,4.24,9.91,6.94,15.84,6.81,11.15.47,21.52-10.01,20.61-21.23.46-7.42-4.18-14.17-10.24-18.01-3.16-1.77-6.77-2.42-10.35-2.74-7.39.15-14.66,4.18-18.35,10.63-3.25,4.98-3.3,11.44-1.85,17.04,1.19,2.63,2.41,5.32,4.34,7.51Z"/>
      <path class="st0" d="M162.68,160.11c5.92,5.61,15.37,6.55,22.67,3.28,4.68-1.9,8.1-5.9,10.61-10.16,1.44-4.23,2.1-8.69,1.39-13.14-1.48-6.94-6.54-13.07-13.27-15.44-6.5-2.65-14.31-1.72-19.99,2.4-6.23,4.1-9.51,11.9-8.71,19.24.26,5.44,3.39,10.22,7.3,13.82Z"/>
      <path class="st0" d="M324.15,162.48c7.62,4.39,18.02,3.43,24.56-2.5,4.12-3.42,6.36-8.5,7.2-13.69,1.01-9.55-5.29-19.14-14.4-22.04-2.92-1.17-6.12-1.2-9.21-1.02-8.56.71-16.27,7.36-18.1,15.78-2.43,8.89,1.66,19.21,9.96,23.47Z"/>
      <path class="st1" d="M126.16,192.07c-6.54.28-13.07,3.7-16.67,9.25-3.1,4.65-4.56,10.51-3.23,16.01,1.87,10.98,13.66,19.37,24.67,16.84,11.68-1.89,19.97-15.02,16.44-26.35-2.01-9.38-11.64-16.5-21.21-15.75Z"/>
      <path class="st1" d="M375.65,232.47c3.81,1.97,8.23,2.15,12.42,1.74,10.18-1.71,18.71-12.04,17.24-22.39-.05-10.7-10.04-19.95-20.63-19.74-9.87-.28-19.77,7.27-21.19,17.2-2.21,9.35,3.67,19.27,12.16,23.18Z"/>
      <path class="st0" d="M135.82,276.53c-3.73-1.86-8.05-2.05-12.12-1.65-7.58,1.23-14.38,6.86-16.62,14.27-3.55,9.97,1.76,22.08,11.51,26.2h.39c5.88,2.54,13.17,2.23,18.59-1.32l.37-.03c6.07-3.9,10.21-10.81,10.2-18.09.25-8.13-4.89-16.11-12.31-19.37Z"/>
      <path class="st0" d="M380.89,274.97c-7.6,1.1-14.27,6.81-16.66,14.09-2.72,7.51-.56,16.5,5.26,21.96,4.94,5.02,12.52,6.95,19.34,5.56,6.49-1.35,12.17-5.95,14.81-12.03,3.56-7.53,1.88-17.1-3.78-23.14-4.76-5.1-12.08-7.55-18.96-6.44Z"/>
      <path class="st1" d="M186.58,345.12c-6.87-3.79-15.82-3.02-22.19,1.43-3.59,2.44-6.29,6.03-7.91,10.03-2.36,6.91-1.32,15.22,3.56,20.81l.19.1c5.34,7.45,16.17,9.74,24.41,6.19,9.79-3.58,15.21-15.51,12.37-25.4-1.25-5.63-5.34-10.53-10.43-13.16Z"/>
      <path class="st1" d="M333.01,342.75c-9.13.57-17.6,7.76-19.1,16.85-.87,3.9-.61,8.05.72,11.82,3.19,9.61,14.11,15.53,23.95,13.64,4.65-.84,9.14-3.21,12.09-6.95.12-.09.34-.26.45-.34,6.87-7.84,6.59-20.86-.85-28.21-4.35-4.69-10.89-7.3-17.27-6.81Z"/>
      <path class="st0" d="M250.53,370.01c-6.87,1.65-12.71,7-15.02,13.67-1.19,3.43-1.2,7.18-.64,10.73,1.38,7.89,7.76,14.48,15.5,16.41,8.77,2.52,18.52-1.94,23.21-9.56,4.14-6.36,4.16-15,.34-21.51-4.46-8.01-14.6-12.09-23.41-9.75Z"/>
    </g>
    <path class="st0" d="M150.47,193.22c.67,3.28,1.9,6.44,2.4,9.77l.3.25c.54,4.07.69,8.16.82,12.26-.85,4.87-2.25,9.67-5.04,13.8-1.41,1.72-2.75,3.5-4.23,5.16-6.25,6.95-14.63,11.52-21.08,18.19-2.3,4.47,3.21,7.08,5.98,9.49,9.06,6.63,19.01,13.66,23.06,24.62l-.09.19c1.55,5.09,1.76,10.52.78,15.74-1.77,9.44-5,18.51-7.85,27.65-.75,1.79.75,3.23,1.73,4.52,1.84.75,3.79,1.27,5.8,1.2,6.21-.02,12.43-.11,18.64-.1,7.12-.12,14.26,2.01,20.24,5.86,3.44,2.17,5.92,5.45,8.12,8.8,2.3,4.01,4,8.32,5.64,12.62,1.54,4.61,2.73,9.31,3.85,14.03.65,2.63,1.73,5.91,4.85,6.35,3.71,1.01,6.26-2.47,8.94-4.37,5.69-4.34,11.4-8.74,17.66-12.22,9.4-4.54,20.75-4.39,29.98.5,7.31,4.21,13.86,9.56,20.63,14.57,1.04.7,2.1,1.57,3.42,1.65,2.62.42,5.06-1.59,5.79-4.02,1.14-3.55,2.04-7.18,3.01-10.78,2.08-6.22,4.18-12.49,7.49-18.19,1.98-2.98,4.13-5.94,7.01-8.12,5.56-4.26,12.55-6.34,19.48-6.75,8.09-.59,16.28.97,24.31-.36l.55.1c1.87-1.03,3.85-2.85,3.11-5.23-1.79-5.56-3.45-11.15-5.16-16.74-2.06-7.82-4.19-15.97-2.45-24.09.52-1.97,1.3-3.85,1.87-5.8,5.18-9.94,14.7-16.3,23.58-22.62,2.07-1.79,5.16-3.52,4.93-6.68.1-1.6-1.13-2.76-2.19-3.75-8.22-7.1-18.08-12.7-24.11-22.01-2.1-2.96-3.09-6.46-4.32-9.82.14-2.16-.5-4.29-.42-6.45-.17-7.98,2.95-15.47,4.64-23.14l.19-.12c.71-2.85,1.82-5.58,2.57-8.42.56-1.64,1.37-3.47.67-5.2-.98-1.79-3-2.81-4.97-3.04-9.2-.87-18.53.42-27.69-1.11-5.55-.96-10.69-3.47-15.3-6.65l-.04-.18c-5.52-4.47-8.22-11.2-11.18-17.42-.19-1.52-.89-2.92-1.38-4.34-1.68-4.8-2.75-9.8-4.47-14.58-.95-2.95-5.05-4.86-7.69-2.92-7.34,5.13-14.18,11.07-22.13,15.28-2.89,1.59-6.16,2.14-9.22,3.28-4.92.23-9.91.45-14.74-.74-11.04-3.18-19.16-11.82-28.48-18.03-1.86-1.22-4.07-.24-5.96.32-2.73,4.08-3.23,9.08-5.01,13.56-1.34,4.78-3.11,9.4-5.24,13.88-1.7,2.96-3.1,6.14-5.42,8.71-2.29,3.01-5.67,4.79-8.77,6.83-3.21.99-6.29,2.41-9.62,2.94-9.46,1.63-19.12.14-28.61,1.42-1.99.25-3.89,1.75-4.28,3.78,0,1.96.85,3.8,1.43,5.66,1.3,3.63,2.3,7.38,3.68,10.98ZM191.24,302.08c-5.09,8.82-14.5,14.25-24.68,14.25h0l4.68-8.1,14.25-24.68,18.21-31.55h16.45l-28.91,50.08ZM184.28,246.22v-14.25h142.71v14.25h-142.71ZM273.59,330.99c-4.69,7.62-14.44,12.08-23.21,9.56-7.74-1.92-14.13-8.51-15.5-16.41-.56-3.56-.55-7.3.64-10.73,2.31-6.67,8.14-12.02,15.02-13.67,8.8-2.34,18.94,1.74,23.41,9.75,3.82,6.51,3.79,15.15-.34,21.51ZM294.59,316.33c0-21.42-17.43-38.85-38.85-38.85s-38.85,17.43-38.85,38.85h-14.25c0-14.18,5.52-27.52,15.55-37.55,10.03-10.03,23.36-15.55,37.55-15.55s27.52,5.52,37.55,15.55c10.03,10.03,15.55,23.37,15.55,37.55h-14.25ZM344.92,316.33c-10.18,0-19.59-5.43-24.68-14.25l-28.91-50.08h16.45l18.21,31.55,14.25,24.68,4.68,8.1h0ZM324.65,192.28c12.54,0,22.71,10.17,22.71,22.71v93.24l-14.25-24.68v-66.32c0-5.9-4.79-10.69-10.69-10.69h-33.77l-8.23-14.25h44.23ZM255.74,161.87l17.56,30.41,8.23,14.25,11.36,19.67h-16.46l-20.69-35.83-20.69,35.83h-16.45l11.36-19.67,8.23-14.25,17.56-30.41ZM164.11,214.99c0-12.54,10.17-22.71,22.71-22.71h44.23l-8.23,14.25h-33.77c-5.9,0-10.69,4.79-10.69,10.69v66.32l-14.25,24.68v-93.24Z"/>
    <path class="st1" d="M99.15,398.86c7.41,8.01,15.44,15.46,23.97,22.24,12.19,9.68,25.45,18.04,39.4,24.83,14.21,6.91,29.22,12.23,44.6,15.82,15.82,3.68,32.15,5.55,48.53,5.55s32.72-1.87,48.53-5.55c15.38-3.58,30.39-8.9,44.6-15.82,13.96-6.79,27.22-15.14,39.4-24.83,8.54-6.78,16.56-14.23,23.97-22.24,5.59,2.68,12.48,1.19,16.41-3.92,4.51-5.86,3.41-14.28-2.46-18.78-5.86-4.51-14.28-3.41-18.78,2.46-3.58,4.66-3.62,10.93-.54,15.57-38.98,42.09-93.34,65.98-151.14,65.98s-112.16-23.89-151.14-65.98c3.08-4.64,3.04-10.91-.54-15.57-4.51-5.86-12.92-6.97-18.78-2.46-5.86,4.51-6.97,12.92-2.46,18.78,3.93,5.11,10.82,6.6,16.41,3.92Z"/>
  </g>
  <path class="st0" d="M125.67,124.1c-16.88,16.88-30.13,36.53-39.39,58.42-9.59,22.66-14.45,46.74-14.45,71.54s4.86,48.88,14.45,71.54c9.26,21.89,22.51,41.54,39.39,58.42,16.88,16.88,36.53,30.13,58.42,39.39,22.66,9.59,46.74,14.45,71.54,14.45s48.88-4.86,71.54-14.45c21.89-9.26,41.54-22.51,58.42-39.39,16.88-16.88,30.13-36.53,39.39-58.42,9.59-22.66,14.45-46.74,14.45-71.54s-4.86-48.88-14.45-71.54c-9.26-21.89-22.51-41.54-39.39-58.42-16.88-16.88-36.53-30.13-58.42-39.39-22.66-9.59-46.74-14.45-71.54-14.45s-48.88,4.86-71.54,14.45c-21.89,9.26-41.54,22.51-58.42,39.39ZM171.52,98.63c.34-.54.8-1.25,1.26-1.97.94-1.44,1.87-2.89,1.87-2.89,0,0,1.71.09,3.42.18.84.04,1.72.15,2.35.2.64.06,1.07.11,1.07.11,0,0-.24.35-.61.86-.36.53-.86,1.18-1.31,1.91-.91,1.43-1.82,2.86-1.82,2.86,0,0-1.69-.1-3.37-.2-.85-.04-1.71-.09-2.35-.12-.63-.01-1.06-.02-1.06-.02,0,0,.22-.37.54-.92ZM255.64,84.51c93.49,0,169.55,76.06,169.55,169.55s-76.06,169.55-169.55,169.55-169.55-76.06-169.55-169.55S162.15,84.51,255.64,84.51ZM162.44,102.54c.2-.38.4-.77.59-1.13.2-.35.38-.67.54-.95.32-.56.54-.93.54-.93,0,0,1.73,0,3.45,0l3.4.02s-.85,1.48-1.7,2.96c-.83,1.46-1.65,2.93-1.65,2.93,0,0-.42,0-1.06-.01-.32,0-.69,0-1.09,0-.39.01-.81.03-1.23.04l-3.38.13s.79-1.52,1.58-3.05ZM152.55,109.14c.72-1.57,1.45-3.14,1.45-3.14,0,0,1.69-.19,3.44-.25,1.71-.08,3.43-.16,3.43-.16,0,0-.76,1.51-1.53,3.02-.77,1.48-1.44,3.04-1.44,3.04l-3.35.28c-1.7.15-3.4.31-3.4.31,0,0,.7-1.55,1.4-3.1ZM142.28,118.54c.21-.61.49-1.43.81-2.21l1.27-3.18s1.7-.25,3.4-.49c.85-.11,1.68-.24,2.32-.31.64-.06,1.07-.1,1.07-.1,0,0-.17.39-.43.96-.25.58-.56,1.39-.88,2.18-.61,1.57-1.23,3.15-1.23,3.15,0,0-1.68.23-3.36.46-.85.11-1.67.27-2.3.38-.62.11-1.04.19-1.04.19,0,0,.14-.41.35-1.01ZM134.16,124.18c.25-.83.5-1.66.68-2.28.18-.63.33-1.03.33-1.03,0,0,1.7-.34,3.4-.67,1.68-.32,3.36-.64,3.36-.64,0,0-.55,1.61-1.09,3.22-.53,1.59-1.05,3.18-1.05,3.18,0,0-.42.07-1.03.21-.61.14-1.43.33-2.25.51-1.65.39-3.3.78-3.3.78,0,0,.48-1.64.96-3.28ZM125.21,134.86c.15-.62.34-1.45.54-2.28.41-1.67.82-3.34.82-3.34,0,0,1.64-.48,3.29-.96,1.67-.41,3.34-.82,3.34-.82,0,0-.46,1.62-.92,3.24-.39,1.65-.78,3.3-.78,3.3,0,0-1.62.46-3.25.92-.82.24-1.64.48-2.25.65-.62.18-1.02.32-1.02.32,0,0,.08-.43.23-1.04ZM117.91,141.51c.12-.87.29-1.69.41-2.33.12-.63.2-1.05.2-1.05,0,0,1.63-.57,3.26-1.14,1.61-.55,3.22-1.1,3.22-1.1,0,0-.32,1.68-.64,3.36-.3,1.66-.6,3.31-.6,3.31,0,0-.4.14-1,.34-.6.21-1.42.47-2.19.78-1.57.61-3.15,1.23-3.15,1.23,0,0,.25-1.7.49-3.4ZM110.72,150.98c.17-1.72.34-3.44.34-3.44,0,0,.39-.18.97-.44.59-.26,1.4-.58,2.2-.91,1.59-.64,3.18-1.27,3.18-1.27l-.46,3.36c-.11.84-.22,1.66-.29,2.29-.06.63-.09,1.06-.09,1.06,0,0-1.54.68-3.07,1.36-1.55.7-3.1,1.4-3.1,1.4,0,0,.15-1.7.31-3.39ZM104.07,162.11c.02-.4.03-.82.05-1.25.08-1.71.16-3.43.16-3.43,0,0,1.53-.79,3.05-1.58,1.49-.79,3.08-1.49,3.08-1.49,0,0-.17,1.67-.22,3.39-.06,1.69-.13,3.38-.13,3.38,0,0-1.51.76-3.02,1.53-.38.2-.76.39-1.12.57-.34.19-.66.37-.94.53-.55.31-.92.52-.92.52,0,0,0-.43,0-1.07,0-.32,0-.7,0-1.1ZM101.11,165.99c1.48-.85,2.96-1.7,2.96-1.7l.02,3.4c.03,1.68.05,3.35.05,3.35,0,0-.37.21-.92.53-.53.33-1.24.78-1.95,1.22-1.43.91-2.86,1.82-2.86,1.82l-.18-3.42c-.04-.87-.08-1.73-.11-2.38v-1.07s1.48-.88,2.98-1.75ZM93.6,177.84c.53-.37,1.2-.88,1.93-1.35,1.44-.94,2.89-1.87,2.89-1.87,0,0,.1,1.68.2,3.37.04.83.16,1.69.22,2.32.07.63.11,1.05.11,1.05,0,0-1.38.97-2.76,1.93-1.39.99-2.78,1.99-2.78,1.99,0,0-.18-1.69-.36-3.38-.17-1.72-.33-3.43-.33-3.43,0,0,.35-.25.87-.63ZM90.73,187.37c.67-.53,1.34-1.05,1.84-1.45.25-.19.46-.36.6-.47.15-.11.24-.17.24-.17,0,0,.01.1.03.29.03.19.07.45.11.77.1.63.22,1.48.35,2.32.27,1.66.53,3.33.53,3.33,0,0-1.34,1.05-2.67,2.09-1.28,1.1-2.56,2.2-2.56,2.2,0,0-.33-1.69-.67-3.38-.26-1.69-.51-3.38-.51-3.38,0,0,1.35-1.07,2.69-2.15ZM84.86,200.11c.49-.43,1.13-1.01,1.78-1.58,1.29-1.13,2.57-2.25,2.57-2.25l.69,3.32c.18.82.35,1.64.48,2.25.13.61.23,1.02.23,1.02,0,0-1.22,1.15-2.44,2.3-1.23,1.18-2.45,2.35-2.45,2.35,0,0-.42-1.66-.84-3.31-.41-1.68-.83-3.37-.83-3.37,0,0,.31-.3.8-.73ZM83.28,209.93c.59-.62,1.23-1.21,1.68-1.67.46-.45.77-.75.77-.75,0,0,.11.41.27,1.02.17.61.36,1.42.61,2.24.51,1.62,1.01,3.24,1.01,3.24,0,0-1.16,1.22-2.33,2.44-.58.62-1.17,1.25-1.61,1.71-.45.47-.71.79-.71.79,0,0-.16-.41-.34-1.01-.19-.61-.44-1.42-.7-2.23l-1-3.29s1.17-1.25,2.34-2.5ZM80.77,221.55c1.1-1.29,2.21-2.59,2.21-2.59,0,0,.59,1.6,1.17,3.21l1.18,3.15s-.28.32-.69.8c-.4.48-.99,1.13-1.5,1.79-1.03,1.33-2.07,2.67-2.07,2.67,0,0-.66-1.59-1.33-3.18-.34-.8-.6-1.6-.83-2.2-.22-.61-.36-1.01-.36-1.01,0,0,1.11-1.32,2.22-2.64ZM77.57,235.21c.39-.52.91-1.21,1.43-1.9,1.04-1.36,2.08-2.72,2.08-2.72,0,0,.67,1.56,1.33,3.12.33.77.67,1.54.92,2.11.24.57.44.95.44.95,0,0-.96,1.37-1.93,2.74-.97,1.4-1.93,2.79-1.93,2.79,0,0-.74-1.54-1.49-3.08-.74-1.57-1.48-3.13-1.48-3.13,0,0,.23-.35.63-.88ZM77.98,245.15c.95-1.44,1.93-2.85,1.93-2.85,0,0,.73,1.53,1.5,3.02.82,1.49,1.64,2.97,1.64,2.97,0,0-.89,1.43-1.79,2.86-.9,1.46-1.79,2.92-1.79,2.92,0,0-.82-1.49-1.64-2.97l-1.64-3.03s.9-1.46,1.79-2.92ZM77.83,257.03c.82-1.49,1.64-2.97,1.64-2.97,0,0,.89,1.46,1.79,2.91.89,1.43,1.79,2.86,1.79,2.86,0,0-.82,1.49-1.64,2.97-.77,1.5-1.5,3.02-1.5,3.02,0,0-.98-1.41-1.93-2.85-.9-1.46-1.79-2.91-1.79-2.91,0,0,.82-1.51,1.64-3.03ZM76.94,272.04s.74-1.57,1.48-3.13c.74-1.54,1.49-3.08,1.49-3.08,0,0,.97,1.4,1.93,2.79.96,1.37,1.93,2.74,1.93,2.74,0,0-.19.38-.44.95-.25.58-.59,1.34-.92,2.11-.67,1.56-1.33,3.12-1.33,3.12,0,0-1.04-1.36-2.08-2.72-.52-.69-1.04-1.39-1.43-1.9-.4-.52-.63-.88-.63-.88ZM78.56,283.93s.15-.4.36-1.01c.23-.61.49-1.4.83-2.2.66-1.59,1.33-3.18,1.33-3.18,0,0,1.03,1.33,2.07,2.67.51.66,1.09,1.3,1.5,1.79.41.48.69.8.69.8l-1.18,3.15c-.59,1.61-1.17,3.21-1.17,3.21l-2.2-2.59-2.21-2.64ZM83.28,298.19c-1.17-1.25-2.34-2.5-2.34-2.5,0,0,.5-1.65,1-3.29.25-.81.51-1.62.7-2.23.18-.6.34-1.01.34-1.01,0,0,.26.32.71.79.44.47,1.02,1.09,1.61,1.71,1.16,1.22,2.32,2.44,2.32,2.44,0,0-.51,1.62-1.01,3.24-.25.82-.44,1.62-.61,2.24-.16.61-.27,1.02-.27,1.02,0,0-.31-.3-.77-.75-.45-.45-1.09-1.05-1.68-1.67ZM84.86,308.02c-.49-.43-.8-.73-.8-.73,0,0,.41-1.68.83-3.37.42-1.66.84-3.31.84-3.31,0,0,1.23,1.18,2.45,2.35,1.22,1.15,2.43,2.3,2.43,2.3,0,0-.1.41-.23,1.02-.13.61-.31,1.43-.48,2.25-.34,1.66-.69,3.32-.69,3.32,0,0-1.29-1.13-2.57-2.25-.65-.57-1.29-1.15-1.78-1.58ZM90.73,320.76c-1.35-1.07-2.69-2.15-2.69-2.15,0,0,.26-1.69.51-3.38.33-1.69.67-3.38.67-3.38,0,0,1.28,1.1,2.55,2.2,1.34,1.05,2.67,2.09,2.67,2.09,0,0-.27,1.66-.53,3.33-.13.84-.26,1.69-.35,2.32-.05.32-.09.58-.11.77-.02.18-.03.29-.03.29,0,0-.09-.06-.24-.17-.15-.11-.35-.28-.6-.47-.5-.39-1.17-.92-1.84-1.45ZM93.6,330.29c-.52-.38-.87-.63-.87-.63,0,0,.17-1.72.33-3.43.18-1.69.36-3.38.36-3.38,0,0,1.39.99,2.78,1.99,1.38.97,2.76,1.93,2.76,1.93,0,0-.05.42-.11,1.05-.06.63-.18,1.49-.22,2.32l-.2,3.37s-1.44-.94-2.89-1.87c-.74-.47-1.4-.98-1.93-1.35ZM98.13,340.38s0-.43,0-1.07c.03-.65.07-1.52.11-2.38.09-1.71.18-3.42.18-3.42,0,0,1.43.91,2.86,1.82.71.44,1.42.89,1.95,1.22.55.32.92.53.92.53,0,0-.03,1.68-.05,3.35-.01,1.7-.02,3.4-.02,3.4,0,0-1.48-.85-2.96-1.7-1.49-.88-2.99-1.75-2.99-1.75ZM107.33,352.26c-1.53-.79-3.05-1.58-3.05-1.58,0,0-.08-1.71-.16-3.43-.02-.42-.03-.85-.05-1.25,0-.4,0-.78,0-1.1,0-.64,0-1.07,0-1.07,0,0,.37.21.92.52.28.15.6.34.94.53.36.18.74.38,1.12.57,1.51.76,3.02,1.53,3.02,1.53,0,0,.06,1.69.13,3.38.05,1.72.22,3.39.22,3.39,0,0-1.58-.7-3.08-1.49ZM114.23,361.94c-.8-.33-1.61-.65-2.2-.91-.58-.27-.97-.44-.97-.44,0,0-.17-1.72-.34-3.44-.15-1.7-.31-3.4-.31-3.4,0,0,1.55.7,3.1,1.4l3.07,1.36s.04.42.09,1.06c.06.63.18,1.45.29,2.29.23,1.68.46,3.36.46,3.36,0,0-1.59-.64-3.18-1.27ZM121.77,371.13c-1.63-.57-3.26-1.14-3.26-1.14,0,0-.08-.42-.2-1.05-.12-.63-.29-1.46-.41-2.33-.25-1.7-.49-3.4-.49-3.4,0,0,1.57.61,3.15,1.23.77.31,1.59.57,2.19.78.6.2,1,.34,1,.34,0,0,.3,1.66.6,3.31.32,1.68.64,3.36.64,3.36l-3.22-1.09ZM129.86,379.85c-1.64-.48-3.28-.96-3.28-.96,0,0-.41-1.67-.82-3.34-.2-.83-.39-1.66-.54-2.28-.15-.61-.23-1.04-.23-1.04,0,0,.39.14,1.02.32.61.18,1.43.42,2.25.65,1.62.46,3.24.92,3.24.92,0,0,.39,1.65.78,3.3.46,1.62.92,3.25.92,3.25l-3.34-.82ZM138.57,387.93c-1.7-.34-3.4-.67-3.4-.67,0,0-.15-.4-.33-1.03-.19-.62-.43-1.45-.68-2.28-.48-1.64-.96-3.29-.96-3.29,0,0,1.65.39,3.3.78.82.19,1.63.37,2.25.51.6.14,1.03.21,1.03.21,0,0,.53,1.59,1.05,3.18.55,1.61,1.1,3.22,1.1,3.22,0,0-1.68-.32-3.36-.64ZM150.08,395.78c-.64-.07-1.47-.19-2.32-.31-1.7-.25-3.4-.49-3.4-.49l-1.27-3.18c-.32-.78-.6-1.61-.81-2.21-.21-.61-.35-1.01-.35-1.01,0,0,.42.08,1.04.19.62.11,1.44.27,2.29.38,1.68.23,3.36.46,3.36.46,0,0,.61,1.57,1.23,3.15.32.79.62,1.59.88,2.18.26.58.43.96.43.96l-1.07-.1ZM157.44,402.37c-1.74-.06-3.43-.25-3.43-.25,0,0-.73-1.57-1.45-3.14-.7-1.55-1.4-3.1-1.4-3.1,0,0,1.7.15,3.39.31,1.67.14,3.35.28,3.35.28,0,0,.67,1.57,1.44,3.05.76,1.51,1.53,3.02,1.53,3.02,0,0-1.71-.08-3.43-.16ZM167.57,408.59c-1.73,0-3.45,0-3.45,0,0,0-.21-.37-.54-.93-.16-.28-.35-.6-.54-.95-.19-.36-.39-.74-.59-1.13l-1.58-3.05s1.69.06,3.38.13c.42.01.84.03,1.23.04.4,0,.77,0,1.09,0,.63,0,1.06-.01,1.06-.01,0,0,.83,1.46,1.65,2.93.85,1.48,1.7,2.96,1.7,2.96,0,0-1.7.01-3.4.02ZM180.42,413.97c-.64.05-1.51.17-2.35.2-1.71.09-3.42.18-3.42.18,0,0-.94-1.44-1.87-2.89-.46-.72-.91-1.43-1.26-1.97-.33-.56-.54-.93-.54-.93,0,0,.42,0,1.06-.02.64-.03,1.49-.08,2.35-.12,1.68-.1,3.37-.2,3.37-.2l1.82,2.86c.46.73.95,1.39,1.31,1.91.37.52.61.86.61.86,0,0-.43.04-1.07.11ZM188.94,418.97c-.86.12-1.71.25-2.36.34-.32.05-.59.08-.78.11-.19.02-.29.03-.29.03,0,0-1.02-1.4-2.04-2.8-.99-1.39-1.99-2.78-1.99-2.78l3.38-.36c1.66-.19,3.33-.38,3.33-.38,0,0,.06.09.17.24.11.14.27.35.46.6.38.5.9,1.16,1.41,1.82,1.05,1.34,2.1,2.67,2.1,2.67,0,0-1.69.26-3.38.51ZM202.4,422.59c-.62.13-1.46.3-2.29.47-1.69.33-3.38.67-3.38.67,0,0-1.13-1.29-2.25-2.57-1.07-1.35-2.15-2.69-2.15-2.69,0,0,1.66-.27,3.33-.53,1.66-.34,3.32-.69,3.32-.69,0,0,1.1,1.28,2.2,2.56.56.64,1.12,1.29,1.54,1.77.42.49.71.8.71.8,0,0-.42.1-1.04.23ZM211.51,426.42c-.83.24-1.65.43-2.28.6-.62.16-1.04.26-1.04.26,0,0-1.2-1.23-2.41-2.47-1.18-1.23-2.35-2.45-2.35-2.45,0,0,1.66-.42,3.31-.84l3.26-.86s.29.31.73.76c.44.45,1.02,1.09,1.63,1.67,1.22,1.16,2.44,2.33,2.44,2.33,0,0-1.65.5-3.29,1ZM223.13,428.93c-1.63.58-3.27,1.16-3.27,1.16,0,0-.33-.27-.81-.72-.48-.44-1.11-1.03-1.75-1.61-1.25-1.17-2.5-2.34-2.5-2.34,0,0,1.62-.51,3.24-1.01.8-.26,1.59-.51,2.19-.7.59-.18.99-.34.99-.34,0,0,1.27,1.1,2.53,2.19,1.29,1.1,2.59,2.21,2.59,2.21l-3.21,1.17ZM237.03,429.79c-.59.25-1.37.58-2.15.92-1.59.66-3.18,1.33-3.18,1.33,0,0-1.36-1.04-2.72-2.08-.67-.51-1.33-1.1-1.83-1.5-.49-.41-.82-.69-.82-.69,0,0,.4-.15.99-.37.59-.23,1.38-.49,2.16-.83,1.56-.67,3.12-1.33,3.12-1.33,0,0,1.33,1.03,2.67,2.07.68.52,1.36,1.04,1.87,1.43.51.4.86.63.86.63,0,0-.39.19-.97.44ZM246.73,431.72c-1.52.77-3.08,1.5-3.08,1.5,0,0-1.43-.97-2.85-1.94-1.4-.97-2.79-1.93-2.79-1.93,0,0,1.54-.74,3.08-1.49,1.51-.75,3.02-1.49,3.02-1.49,0,0,1.38.98,2.8,1.92,1.43.89,2.86,1.79,2.86,1.79,0,0-1.51.82-3.03,1.64ZM258.61,431.87c-1.49.9-2.97,1.79-2.97,1.79,0,0-1.49-.9-2.97-1.79l-2.92-1.79,2.97-1.64,2.91-1.64s1.46.82,2.92,1.64c1.49.82,2.97,1.64,2.97,1.64,0,0-1.46.9-2.91,1.79ZM270.48,431.28c-1.43.97-2.85,1.94-2.85,1.94,0,0-1.55-.73-3.08-1.5-1.51-.82-3.03-1.64-3.03-1.64,0,0,1.43-.89,2.86-1.79,1.41-.94,2.79-1.92,2.79-1.92,0,0,1.51.75,3.02,1.49,1.54.74,3.08,1.49,3.08,1.49,0,0-1.4.97-2.79,1.93ZM284.12,428.45c-.49.41-1.15.99-1.83,1.5-1.36,1.04-2.72,2.08-2.72,2.08,0,0-1.59-.66-3.18-1.33-.78-.33-1.56-.67-2.15-.92-.58-.24-.97-.44-.97-.44,0,0,.35-.23.86-.63.51-.39,1.19-.91,1.87-1.43,1.33-1.03,2.67-2.07,2.67-2.07l3.12,1.33c.79.34,1.57.6,2.17.83.59.22.99.37.99.37,0,0-.33.28-.82.69ZM293.98,427.76c-.64.59-1.27,1.17-1.75,1.61-.48.45-.81.72-.81.72,0,0-1.63-.58-3.27-1.16-1.61-.59-3.21-1.17-3.21-1.17,0,0,1.29-1.1,2.59-2.2,1.26-1.1,2.53-2.19,2.53-2.19,0,0,.4.16.99.34.6.19,1.4.45,2.19.7l3.24,1.01s-1.25,1.17-2.5,2.34ZM305.49,424.81c-1.2,1.23-2.41,2.47-2.41,2.47,0,0-.42-.1-1.04-.26-.63-.16-1.45-.35-2.28-.6-1.65-.5-3.29-1-3.29-1,0,0,1.22-1.16,2.44-2.32.6-.58,1.19-1.22,1.63-1.67.44-.46.73-.76.73-.76,0,0,1.63.43,3.26.86,1.66.42,3.31.84,3.31.84,0,0-1.18,1.23-2.35,2.45ZM316.81,421.15c-1.13,1.29-2.25,2.57-2.25,2.57,0,0-1.69-.33-3.38-.67-.83-.17-1.67-.34-2.29-.47-.62-.13-1.04-.23-1.04-.23,0,0,.29-.31.71-.8.42-.48.98-1.12,1.54-1.77,1.1-1.28,2.2-2.56,2.2-2.56,0,0,1.66.34,3.32.69,1.66.27,3.33.53,3.33.53l-2.15,2.69ZM327.81,416.64c-1.02,1.4-2.04,2.8-2.04,2.8,0,0-.11-.01-.29-.03-.19-.03-.46-.06-.78-.11-.64-.09-1.5-.22-2.36-.34-1.69-.26-3.38-.51-3.38-.51,0,0,1.05-1.34,2.09-2.67.51-.66,1.02-1.33,1.41-1.82.19-.25.35-.45.46-.6.11-.15.17-.24.17-.24l3.33.38c1.69.18,3.38.36,3.38.36,0,0-.99,1.39-1.99,2.78ZM339.76,409.49c-.34.54-.8,1.25-1.26,1.97-.94,1.44-1.87,2.89-1.87,2.89,0,0-1.71-.09-3.42-.18-.84-.04-1.72-.15-2.35-.2-.64-.06-1.07-.11-1.07-.11,0,0,.24-.35.61-.86.36-.53.86-1.18,1.31-1.91.91-1.43,1.82-2.86,1.82-2.86,0,0,1.69.1,3.37.2.85.04,1.71.09,2.35.12.63.01,1.06.02,1.06.02,0,0-.22.37-.54.92ZM348.84,405.58c-.2.38-.4.77-.59,1.13-.2.35-.38.67-.54.95-.32.56-.54.93-.54.93h-3.45c-1.7,0-3.4-.02-3.4-.02,0,0,.85-1.48,1.7-2.96.83-1.46,1.65-2.93,1.65-2.93,0,0,.42,0,1.06.01.32,0,.69,0,1.09,0,.39-.01.81-.03,1.23-.04,1.69-.06,3.38-.13,3.38-.13,0,0-.79,1.52-1.58,3.05ZM358.73,398.99c-.72,1.57-1.45,3.14-1.45,3.14,0,0-1.69.19-3.44.25-1.71.08-3.43.16-3.43.16,0,0,.76-1.51,1.53-3.02.77-1.48,1.44-3.04,1.44-3.04,0,0,1.67-.14,3.35-.28l3.4-.31s-.7,1.55-1.4,3.1ZM369,389.58c-.21.61-.49,1.43-.81,2.21-.64,1.59-1.27,3.18-1.27,3.18,0,0-1.7.25-3.4.49-.85.11-1.68.24-2.32.31-.64.06-1.07.1-1.07.1,0,0,.17-.39.43-.96.25-.58.56-1.39.88-2.18.61-1.57,1.23-3.15,1.23-3.15,0,0,1.68-.23,3.36-.46.85-.11,1.67-.27,2.3-.38.62-.11,1.04-.19,1.04-.19,0,0-.14.41-.35,1.01ZM377.12,383.95c-.25.83-.5,1.66-.68,2.28-.18.63-.33,1.03-.33,1.03,0,0-1.7.34-3.4.67-1.68.32-3.36.64-3.36.64,0,0,.55-1.61,1.09-3.22.53-1.59,1.05-3.18,1.05-3.18,0,0,.42-.07,1.03-.21.61-.14,1.43-.33,2.25-.51l3.3-.78s-.48,1.64-.96,3.28ZM386.06,373.27c-.15.62-.34,1.45-.54,2.28-.41,1.67-.82,3.34-.82,3.34,0,0-1.64.48-3.29.96-1.67.41-3.34.82-3.34.82,0,0,.46-1.62.92-3.24.39-1.65.78-3.3.78-3.3,0,0,1.62-.46,3.25-.92.82-.24,1.64-.48,2.25-.65.62-.18,1.02-.32,1.02-.32,0,0-.08.43-.23,1.04ZM393.37,366.62c-.12.87-.29,1.69-.41,2.33-.12.63-.2,1.05-.2,1.05,0,0-1.63.57-3.26,1.14-1.61.55-3.22,1.1-3.22,1.1,0,0,.32-1.68.64-3.36.3-1.66.6-3.31.6-3.31,0,0,.4-.13,1-.34.6-.21,1.42-.47,2.19-.78,1.57-.61,3.15-1.23,3.15-1.23,0,0-.25,1.7-.49,3.4ZM400.56,357.15c-.17,1.72-.34,3.44-.34,3.44,0,0-.39.18-.97.44-.59.26-1.4.58-2.2.91-1.59.64-3.18,1.27-3.18,1.27,0,0,.23-1.68.46-3.36.11-.84.22-1.66.29-2.29.06-.63.09-1.06.09-1.06,0,0,1.54-.68,3.07-1.36,1.55-.7,3.1-1.4,3.1-1.4,0,0-.15,1.7-.31,3.39ZM407.21,346.01c-.02.4-.03.82-.05,1.25-.08,1.71-.16,3.43-.16,3.43,0,0-1.53.79-3.05,1.58-1.49.79-3.08,1.49-3.08,1.49,0,0,.17-1.67.22-3.39.06-1.69.13-3.38.13-3.38,0,0,1.51-.76,3.02-1.53.38-.2.76-.39,1.12-.57.34-.19.66-.37.94-.53.55-.31.92-.52.92-.52,0,0,0,.43,0,1.07,0,.32,0,.7,0,1.1ZM410.17,342.13c-1.48.85-2.96,1.7-2.96,1.7,0,0-.01-1.7-.02-3.4-.03-1.68-.05-3.35-.05-3.35,0,0,.37-.21.92-.53.53-.33,1.24-.78,1.95-1.22,1.43-.91,2.86-1.82,2.86-1.82,0,0,.09,1.71.18,3.42.04.87.08,1.73.11,2.38,0,.64,0,1.07,0,1.07,0,0-1.49.88-2.99,1.75ZM417.68,330.29c-.53.37-1.2.88-1.93,1.35-1.44.94-2.89,1.87-2.89,1.87l-.2-3.37c-.04-.83-.16-1.69-.22-2.32-.07-.63-.11-1.05-.11-1.05,0,0,1.38-.97,2.76-1.93,1.39-.99,2.78-1.99,2.78-1.99,0,0,.18,1.69.36,3.38.17,1.72.33,3.43.33,3.43,0,0-.35.25-.87.63ZM420.55,320.76c-.67.53-1.34,1.05-1.84,1.45-.25.19-.46.36-.6.47-.15.11-.24.17-.24.17,0,0-.01-.1-.03-.29-.03-.19-.07-.45-.11-.77-.1-.63-.22-1.48-.35-2.32-.27-1.66-.53-3.33-.53-3.33,0,0,1.34-1.05,2.67-2.09l2.56-2.2.67,3.38c.26,1.69.51,3.38.51,3.38,0,0-1.35,1.07-2.69,2.15ZM426.41,308.02c-.49.43-1.13,1.01-1.78,1.58l-2.57,2.25s-.34-1.66-.69-3.32c-.18-.82-.35-1.64-.48-2.25-.13-.61-.23-1.02-.23-1.02,0,0,1.22-1.15,2.44-2.3,1.23-1.18,2.45-2.35,2.45-2.35,0,0,.42,1.66.84,3.31.41,1.68.83,3.37.83,3.37,0,0-.31.3-.8.73ZM428,298.19c-.59.62-1.23,1.21-1.68,1.67-.46.45-.77.75-.77.75,0,0-.11-.41-.27-1.02-.17-.61-.36-1.42-.61-2.24-.51-1.62-1.01-3.24-1.01-3.24,0,0,1.16-1.22,2.33-2.44.58-.62,1.17-1.25,1.61-1.71.45-.47.71-.79.71-.79,0,0,.16.41.34,1.01.19.61.44,1.42.7,2.23l1,3.29s-1.17,1.25-2.34,2.5ZM430.51,286.57c-1.1,1.29-2.21,2.59-2.21,2.59,0,0-.58-1.6-1.17-3.21-.59-1.58-1.18-3.15-1.18-3.15,0,0,.28-.32.69-.8.4-.48.99-1.13,1.5-1.79l2.07-2.67s.66,1.59,1.33,3.18c.34.8.6,1.6.83,2.2.22.61.36,1.01.36,1.01,0,0-1.11,1.32-2.22,2.64ZM433.71,272.91c-.39.52-.91,1.21-1.43,1.9-1.04,1.36-2.08,2.72-2.08,2.72,0,0-.67-1.56-1.33-3.12-.33-.77-.67-1.54-.92-2.11-.24-.57-.44-.95-.44-.95,0,0,.96-1.37,1.93-2.74.97-1.4,1.93-2.79,1.93-2.79,0,0,.74,1.54,1.49,3.08.74,1.57,1.48,3.13,1.48,3.13,0,0-.23.35-.63.88ZM433.3,262.98c-.95,1.44-1.93,2.85-1.93,2.85,0,0-.73-1.53-1.5-3.02-.82-1.49-1.64-2.97-1.64-2.97,0,0,.89-1.43,1.79-2.86.9-1.46,1.79-2.92,1.79-2.92,0,0,.82,1.49,1.64,2.97.82,1.51,1.64,3.03,1.64,3.03,0,0-.9,1.46-1.79,2.92ZM433.45,251.09c-.82,1.49-1.64,2.97-1.64,2.97,0,0-.9-1.46-1.79-2.91-.89-1.43-1.79-2.86-1.79-2.86,0,0,.82-1.49,1.64-2.97.77-1.5,1.5-3.02,1.5-3.02,0,0,.98,1.41,1.93,2.85l1.79,2.91s-.82,1.51-1.64,3.03ZM434.34,236.09s-.74,1.57-1.48,3.13l-1.49,3.08s-.97-1.4-1.93-2.79l-1.93-2.74s.2-.38.44-.95c.25-.58.59-1.34.92-2.11.67-1.56,1.33-3.12,1.33-3.12,0,0,1.04,1.36,2.08,2.72.52.69,1.04,1.39,1.43,1.9.4.52.63.88.63.88ZM432.72,224.19s-.15.4-.36,1.01c-.23.61-.49,1.4-.83,2.2-.66,1.59-1.33,3.18-1.33,3.18,0,0-1.03-1.33-2.07-2.67-.51-.66-1.09-1.3-1.5-1.79-.41-.48-.69-.8-.69-.8,0,0,.59-1.58,1.18-3.15.59-1.61,1.17-3.21,1.17-3.21,0,0,1.1,1.29,2.2,2.59l2.21,2.64ZM428,209.93c1.17,1.25,2.34,2.5,2.34,2.5,0,0-.5,1.65-1,3.29-.25.81-.51,1.62-.7,2.23-.18.6-.34,1.01-.34,1.01,0,0-.26-.32-.71-.79-.44-.47-1.02-1.09-1.61-1.71l-2.33-2.44s.51-1.62,1.01-3.24c.25-.82.44-1.62.61-2.24.16-.61.27-1.02.27-1.02,0,0,.31.3.77.75.45.45,1.09,1.05,1.68,1.66ZM426.41,200.11c.49.43.8.73.8.73,0,0-.41,1.68-.83,3.37-.42,1.66-.84,3.31-.84,3.31,0,0-1.23-1.18-2.45-2.35-1.22-1.15-2.43-2.3-2.43-2.3,0,0,.1-.41.23-1.02.13-.61.31-1.43.48-2.25l.69-3.32,2.57,2.25c.65.57,1.29,1.15,1.78,1.58ZM420.55,187.36c1.35,1.07,2.69,2.15,2.69,2.15,0,0-.26,1.69-.51,3.38l-.67,3.38s-1.28-1.1-2.55-2.2c-1.34-1.05-2.67-2.09-2.67-2.09,0,0,.27-1.66.53-3.33.13-.84.26-1.69.35-2.32.05-.32.09-.58.11-.77.02-.18.03-.29.03-.29,0,0,.09.06.24.17.15.11.35.28.6.47.5.39,1.17.92,1.84,1.45ZM417.68,177.84c.52.38.87.63.87.63,0,0-.17,1.72-.33,3.43-.18,1.69-.36,3.38-.36,3.38,0,0-1.39-.99-2.78-1.99-1.38-.97-2.76-1.93-2.76-1.93,0,0,.05-.42.11-1.05.06-.63.18-1.49.22-2.32.1-1.69.2-3.37.2-3.37,0,0,1.44.94,2.89,1.87.74.47,1.4.98,1.93,1.35ZM413.15,167.74s0,.43,0,1.07c-.03.65-.07,1.52-.11,2.38-.09,1.71-.18,3.42-.18,3.42,0,0-1.43-.91-2.86-1.82-.71-.44-1.42-.89-1.95-1.22l-.92-.53s.03-1.68.05-3.35c.01-1.7.02-3.4.02-3.4,0,0,1.48.85,2.96,1.7,1.49.88,2.99,1.75,2.99,1.75ZM403.95,155.86c1.52.79,3.05,1.58,3.05,1.58,0,0,.08,1.71.16,3.43.02.42.03.85.05,1.25,0,.4,0,.78,0,1.1,0,.64,0,1.07,0,1.07,0,0-.37-.21-.92-.52-.28-.15-.6-.34-.94-.53-.36-.18-.74-.38-1.12-.57-1.51-.76-3.02-1.53-3.02-1.53,0,0-.06-1.69-.13-3.38-.05-1.72-.22-3.39-.22-3.39,0,0,1.58.7,3.08,1.49ZM397.05,146.18c.8.33,1.61.65,2.2.91.58.27.97.44.97.44,0,0,.17,1.72.34,3.44.15,1.7.31,3.4.31,3.4,0,0-1.55-.7-3.1-1.4-1.53-.68-3.07-1.36-3.07-1.36,0,0-.04-.42-.09-1.06-.06-.63-.18-1.45-.29-2.29-.23-1.68-.46-3.36-.46-3.36,0,0,1.59.64,3.18,1.27ZM389.51,136.99l3.26,1.14s.08.42.2,1.05c.12.63.29,1.46.41,2.33.25,1.7.49,3.4.49,3.4,0,0-1.57-.61-3.15-1.23-.77-.31-1.59-.57-2.19-.78-.6-.2-1-.34-1-.34,0,0-.3-1.66-.6-3.31-.32-1.68-.64-3.36-.64-3.36,0,0,1.61.55,3.22,1.09ZM381.42,128.28c1.64.48,3.28.96,3.28.96,0,0,.41,1.67.82,3.34.2.83.39,1.66.54,2.28.15.61.23,1.04.23,1.04,0,0-.39-.14-1.02-.32-.61-.18-1.43-.42-2.25-.65-1.62-.46-3.24-.92-3.24-.92,0,0-.39-1.65-.78-3.3-.46-1.62-.92-3.25-.92-3.25,0,0,1.67.41,3.34.82ZM372.71,120.19c1.7.34,3.4.67,3.4.67,0,0,.15.4.33,1.03.19.62.43,1.45.68,2.28.48,1.64.96,3.29.96,3.29l-3.3-.78c-.82-.19-1.63-.37-2.25-.51-.6-.14-1.03-.21-1.03-.21l-1.05-3.18-1.1-3.22s1.68.32,3.36.64ZM361.2,112.35c.64.07,1.47.19,2.32.31,1.7.25,3.4.49,3.4.49,0,0,.64,1.59,1.27,3.18.32.78.6,1.61.81,2.21.21.61.35,1.01.35,1.01,0,0-.42-.08-1.04-.19-.62-.11-1.44-.27-2.29-.38-1.68-.23-3.36-.46-3.36-.46,0,0-.61-1.57-1.23-3.15-.32-.79-.62-1.59-.88-2.18-.26-.58-.43-.96-.43-.96,0,0,.43.04,1.07.1ZM353.84,105.75c1.74.06,3.43.25,3.43.25,0,0,.73,1.57,1.45,3.14.7,1.55,1.4,3.1,1.4,3.1,0,0-1.7-.15-3.39-.31-1.67-.14-3.35-.28-3.35-.28,0,0-.67-1.57-1.44-3.05-.76-1.51-1.53-3.02-1.53-3.02,0,0,1.71.08,3.43.16ZM343.71,99.53c1.73,0,3.45,0,3.45,0,0,0,.21.37.54.93.16.28.35.6.54.95.19.36.39.74.59,1.13.79,1.53,1.58,3.05,1.58,3.05,0,0-1.69-.06-3.38-.13-.42-.01-.84-.03-1.23-.04-.4,0-.77,0-1.09,0-.63,0-1.06.01-1.06.01,0,0-.83-1.46-1.65-2.93-.85-1.48-1.7-2.96-1.7-2.96,0,0,1.7-.01,3.4-.02ZM330.86,94.16c.64-.05,1.51-.17,2.35-.2,1.71-.09,3.42-.18,3.42-.18,0,0,.94,1.44,1.87,2.89.46.72.91,1.43,1.26,1.97.33.56.54.92.54.92,0,0-.42,0-1.06.02-.64.03-1.49.08-2.35.12-1.68.1-3.37.2-3.37.2,0,0-.91-1.43-1.82-2.86-.46-.73-.95-1.39-1.31-1.91-.37-.52-.61-.86-.61-.86,0,0,.43-.04,1.07-.11ZM322.34,89.15c.86-.12,1.71-.25,2.36-.34.32-.05.59-.08.78-.11.19-.02.29-.03.29-.03l2.04,2.8c.99,1.39,1.99,2.78,1.99,2.78,0,0-1.69.18-3.38.36l-3.33.38s-.06-.09-.17-.24c-.11-.14-.27-.35-.46-.6-.38-.5-.9-1.16-1.41-1.82-1.05-1.34-2.1-2.67-2.1-2.67,0,0,1.69-.26,3.38-.51ZM308.88,85.54c.62-.13,1.46-.3,2.29-.47,1.69-.33,3.38-.67,3.38-.67,0,0,1.13,1.29,2.25,2.57,1.07,1.35,2.15,2.69,2.15,2.69,0,0-1.66.27-3.33.53-1.66.34-3.32.69-3.32.69,0,0-1.1-1.28-2.2-2.56-.56-.64-1.12-1.29-1.54-1.77-.42-.49-.71-.8-.71-.8,0,0,.42-.1,1.04-.23ZM299.77,81.7c.83-.24,1.65-.43,2.28-.6.62-.16,1.04-.26,1.04-.26,0,0,1.2,1.23,2.41,2.47,1.18,1.23,2.35,2.45,2.35,2.45,0,0-1.66.42-3.31.84-1.63.43-3.26.86-3.26.86,0,0-.29-.31-.73-.76-.44-.45-1.02-1.09-1.63-1.67-1.22-1.16-2.44-2.33-2.44-2.33,0,0,1.65-.5,3.29-1ZM288.15,79.2c1.63-.58,3.27-1.16,3.27-1.16,0,0,.33.27.81.72.48.44,1.11,1.03,1.75,1.61l2.5,2.34s-1.62.51-3.24,1.01c-.8.26-1.59.51-2.19.7-.59.18-.99.34-.99.34,0,0-1.27-1.1-2.53-2.19-1.29-1.1-2.59-2.21-2.59-2.21,0,0,1.6-.58,3.21-1.17ZM274.25,78.34c.59-.25,1.37-.58,2.15-.92l3.18-1.33s1.36,1.04,2.72,2.08c.67.51,1.33,1.1,1.83,1.5.49.41.82.69.82.69,0,0-.4.15-.99.37-.59.23-1.38.49-2.16.83-1.56.67-3.12,1.33-3.12,1.33,0,0-1.33-1.03-2.67-2.07-.68-.52-1.36-1.04-1.87-1.43-.51-.4-.86-.63-.86-.63,0,0,.39-.19.97-.44ZM264.55,76.4c1.52-.77,3.08-1.5,3.08-1.5,0,0,1.43.97,2.85,1.94,1.4.97,2.79,1.93,2.79,1.93,0,0-1.54.74-3.08,1.49-1.51.75-3.02,1.49-3.02,1.49,0,0-1.38-.98-2.8-1.92-1.43-.89-2.86-1.79-2.86-1.79,0,0,1.51-.82,3.03-1.64ZM252.67,76.25l2.97-1.79s1.49.9,2.97,1.79c1.46.9,2.92,1.79,2.92,1.79l-2.97,1.64c-1.46.82-2.91,1.64-2.91,1.64,0,0-1.46-.82-2.92-1.64-1.49-.82-2.97-1.64-2.97-1.64,0,0,1.46-.9,2.91-1.79ZM240.8,76.84c1.43-.97,2.85-1.94,2.85-1.94,0,0,1.55.73,3.08,1.5,1.51.82,3.03,1.64,3.03,1.64,0,0-1.43.89-2.86,1.79-1.41.94-2.79,1.92-2.79,1.92,0,0-1.51-.75-3.02-1.49-1.54-.74-3.08-1.49-3.08-1.49,0,0,1.4-.97,2.79-1.93ZM227.16,79.67c.49-.41,1.15-.99,1.83-1.5,1.36-1.04,2.72-2.08,2.72-2.08,0,0,1.59.66,3.18,1.33.78.33,1.56.67,2.15.92.58.24.97.44.97.44,0,0-.35.23-.86.63-.51.39-1.19.91-1.87,1.43-1.33,1.03-2.67,2.07-2.67,2.07l-3.12-1.33c-.79-.34-1.57-.6-2.17-.83-.59-.22-.99-.37-.99-.37,0,0,.33-.28.82-.69ZM217.3,80.37c.64-.59,1.27-1.17,1.75-1.61.48-.45.81-.72.81-.72,0,0,1.63.58,3.27,1.16,1.61.59,3.21,1.17,3.21,1.17,0,0-1.29,1.1-2.59,2.2-1.26,1.1-2.53,2.19-2.53,2.19,0,0-.4-.16-.99-.34-.6-.19-1.4-.45-2.19-.7-1.62-.51-3.24-1.01-3.24-1.01,0,0,1.25-1.17,2.5-2.34ZM205.78,83.31c1.2-1.23,2.41-2.47,2.41-2.47,0,0,.42.1,1.04.26.63.16,1.45.35,2.28.6,1.65.5,3.29,1,3.29,1,0,0-1.22,1.16-2.44,2.32-.6.58-1.19,1.22-1.63,1.67-.44.46-.73.76-.73.76,0,0-1.63-.43-3.26-.86-1.66-.42-3.31-.84-3.31-.84,0,0,1.18-1.23,2.35-2.45ZM194.47,86.97c1.13-1.29,2.25-2.57,2.25-2.57,0,0,1.69.33,3.38.67.83.17,1.67.34,2.29.47.62.13,1.04.23,1.04.23,0,0-.29.31-.71.8-.42.48-.98,1.12-1.54,1.77-1.1,1.28-2.2,2.56-2.2,2.56l-3.32-.69-3.33-.53s1.07-1.35,2.15-2.69ZM185.8,88.71c.19.03.46.06.78.11.64.09,1.5.22,2.36.34,1.69.26,3.38.51,3.38.51,0,0-1.05,1.34-2.09,2.67-.51.66-1.02,1.33-1.41,1.82-.19.25-.35.45-.46.6-.11.15-.17.24-.17.24,0,0-1.66-.19-3.33-.38-1.69-.18-3.38-.36-3.38-.36,0,0,.99-1.39,1.99-2.78l2.04-2.8s.11.01.29.03Z"/>
</svg>